<?xml version="1.0" standalone="no"?>
<!DOCTYPE svg PUBLIC "-//W3C//DTD SVG 1.1//EN" "http://www.w3.org/Graphics/SVG/1.1/DTD/svg11.dtd" >
<svg xmlns="http://www.w3.org/2000/svg">
<metadata>
This is a custom SVG webfont generated by Font Squirrel.
Designer    : Denis A Serikov
Foundry     : Denis A Serikov
Foundry URL : www.otlab.ru
</metadata>
<defs>
<font id="webfontrNqMzmZm" horiz-adv-x="890" >
<font-face units-per-em="1000" ascent="750" descent="-250" />
<missing-glyph horiz-adv-x="500" />
<glyph unicode=" " />
<glyph unicode="!" d="M155 221v-17h564l-63 428h-342q-9 0 -14.5 -7t-5.5 -16q0 -23 21 -23h299l18 -126h-299q-72 0 -125 -69.5t-53 -169.5zM202 250h462l-25 164h-306q-52 0 -91.5 -55t-39.5 -109zM45 126v548q0 52 36.5 89t89.5 37h548q53 0 89.5 -37t36.5 -89v-548q0 -52 -36.5 -89 t-89.5 -37h-548q-53 0 -89.5 37t-36.5 89z" />
<glyph unicode="&#x22;" d="M192 590l70 -402h366l70 402h-37l-7 -46q-6 2 -16 2q-9 0 -24 -8.5t-24 -8.5t-24.5 8.5t-24.5 8.5t-24 -8.5t-24 -8.5t-24.5 8.5t-24.5 8.5t-24 -8.5t-24 -8.5t-24.5 8.5t-24.5 8.5t-24 -8.5t-24 -8.5t-24.5 8.5t-24.5 8.5q-5 0 -13 -2l-8 46h-37zM597 224h-304l-50 287 q2 1 7 1q9 0 24.5 -8.5t24.5 -8.5t24 8.5t24 8.5t24.5 -8.5t24.5 -8.5t24 8.5t24 8.5t24.5 -8.5t24.5 -8.5t24 8.5t24 8.5t24.5 -8.5t24.5 -8.5t24 8.5t24 8.5q1 0 4.5 -0.5t4.5 -0.5zM45 126v548q0 52 36.5 89t89.5 37h548q53 0 89.5 -37t36.5 -89v-548q0 -52 -36.5 -89 t-89.5 -37h-548q-53 0 -89.5 37t-36.5 89zM436 335q0 21 -25 32q22 10 22 27q0 14 -13 22.5t-35 8.5q-21 0 -34 -9.5t-13 -23.5q0 -22 20 -29q-23 -11 -23 -29q0 -15 11 -25q13 -10 39 -10q23 0 37 10t14 26zM550 342q0 23 -16 30q-11 8 -30 8q-2 0 -6.5 -0.5t-5.5 -0.5v20 h55v23h-85v-68q4 0 13.5 2t14.5 2q13 0 22 -5q7 -5 7 -12q0 -9 -6 -13q-6 -5 -20 -5q-20 0 -33 10l-3 -27q14 -7 40 -7q24 0 39 12q14 11 14 31zM405 334q0 -9 -7 -11q-3 -3 -12 -3q-21 0 -21 18q0 10 9 17q12 -3 16 -6q15 -6 15 -15zM403 390q0 -7 -7 -16l-16 6 q-11 4 -11 12q0 4 5 9q9 3 11 3q18 0 18 -14z" />
<glyph unicode="#" d="M155 221v-17h564l-63 428h-342q-9 0 -14.5 -7t-5.5 -16q0 -23 21 -23h299l18 -126h-299q-72 0 -125 -69.5t-53 -169.5zM202 250h462l-25 164h-306q-52 0 -91.5 -55t-39.5 -109zM45 126v548q0 52 36.5 89t89.5 37h548q53 0 89.5 -37t36.5 -89v-548q0 -52 -36.5 -89 t-89.5 -37h-548q-53 0 -89.5 37t-36.5 89zM453 334q0 15 10.5 25.5t25.5 10.5t25.5 -10.5t10.5 -25.5t-10.5 -25.5t-25.5 -10.5t-25.5 10.5t-10.5 25.5zM357 334q0 15 10.5 25.5t25.5 10.5t25.5 -10.5t10.5 -25.5t-10.5 -25.5t-25.5 -10.5t-25.5 10.5t-10.5 25.5z" />
<glyph unicode="$" d="M405 334q0 15 10.5 25.5t25.5 10.5t25.5 -10.5t10.5 -25.5t-10.5 -25.5t-25.5 -10.5t-25.5 10.5t-10.5 25.5zM155 221v-17h564l-63 428h-342q-9 0 -14.5 -7t-5.5 -16q0 -23 21 -23h299l18 -126h-299q-72 0 -125 -69.5t-53 -169.5zM202 250h462l-25 164h-306 q-52 0 -91.5 -55t-39.5 -109zM45 126v548q0 52 36.5 89t89.5 37h548q53 0 89.5 -37t36.5 -89v-548q0 -52 -36.5 -89t-89.5 -37h-548q-53 0 -89.5 37t-36.5 89zM501 334q0 15 10.5 25.5t25.5 10.5t25.5 -10.5t10.5 -25.5t-10.5 -25.5t-25.5 -10.5t-25.5 10.5t-10.5 25.5z M309 334q0 15 10.5 25.5t25.5 10.5t25.5 -10.5t10.5 -25.5t-10.5 -25.5t-25.5 -10.5t-25.5 10.5t-10.5 25.5z" />
<glyph unicode="%" d="M507 414h132l25 -164h-21l46 -46h30l-54 368l-43 -43l10 -69h-79zM267 250h-65q0 54 39.5 109t91.5 55h71l-46 46h-25q-72 0 -125 -69.5t-53 -169.5v-17h66zM315 586h288l46 46h-335q-9 0 -14.5 -7t-5.5 -16q0 -23 21 -23zM568 250h-225l-46 -46h317zM433 460l22 -22 l22 22h-44zM45 126v548q0 52 36.5 89t89.5 37h548q53 0 89.5 -37t36.5 -89v-548q0 -52 -36.5 -89t-89.5 -37h-548q-53 0 -89.5 37t-36.5 89zM200 169l25 -24l231 230l230 -230l24 25l-230 230l230 230l-24 25l-230 -230l-231 230l-25 -24l231 -231z" />
<glyph unicode="&#x26;" d="M45 126v548q0 52 36.5 89t89.5 37h548q53 0 89.5 -37t36.5 -89v-548q0 -52 -36.5 -89t-89.5 -37h-548q-53 0 -89.5 37t-36.5 89zM192 400q0 -104 74 -178.5t178 -74.5q105 0 179.5 74.5t74.5 178.5t-74.5 178.5t-179.5 74.5q-104 0 -178 -74.5t-74 -178.5zM238 400 q0 -86 60.5 -147t145.5 -61q86 0 147.5 61.5t61.5 146.5t-61.5 146.5t-147.5 61.5q-85 0 -145.5 -61t-60.5 -147zM418 270h-52v254h82q34 0 56 -4.5t39 -22.5t17 -51q0 -27 -9 -44t-27 -24.5t-34 -9.5t-40 -2h-32v-96zM463 480h-45v-70h45q45 0 45 34q0 36 -45 36z" />
<glyph unicode="'" d="M262 188l-70 402h37l8 -46q8 2 13 2q9 0 24.5 -8.5t24.5 -8.5t24 8.5t24 8.5t24.5 -8.5t24.5 -8.5t24 8.5t24 8.5t24.5 -8.5t24.5 -8.5t24 8.5t24 8.5t24.5 -8.5t24.5 -8.5t24 8.5t24 8.5q10 0 16 -2l7 46h37l-70 -402h-366zM293 224h304l50 287q-1 0 -4.5 0.5t-4.5 0.5 q-9 0 -24 -8.5t-24 -8.5t-24.5 8.5t-24.5 8.5t-24 -8.5t-24 -8.5t-24.5 8.5t-24.5 8.5t-24 -8.5t-24 -8.5t-24.5 8.5t-24.5 8.5t-24 -8.5t-24 -8.5t-24.5 8.5t-24.5 8.5q-5 0 -7 -1zM45 126v548q0 52 36.5 89t89.5 37h548q53 0 89.5 -37t36.5 -89v-548q0 -52 -36.5 -89 t-89.5 -37h-548q-53 0 -89.5 37t-36.5 89zM710 775h-530q-48 0 -79 -31t-31 -79v-530q0 -48 31 -79t79 -31h530q48 0 79 31t31 79v530q0 48 -31 79t-79 31zM436 335q0 -16 -14 -26t-37 -10q-26 0 -39 10q-11 10 -11 25q0 18 23 29q-20 7 -20 29q0 14 13 23.5t34 9.5 q22 0 35 -8.5t13 -22.5q0 -17 -22 -27q25 -11 25 -32zM550 342q0 -20 -14 -31q-15 -12 -39 -12q-26 0 -40 7l3 27q13 -10 33 -10q14 0 20 5q6 4 6 13q0 7 -7 12q-9 5 -22 5q-5 0 -14.5 -2t-13.5 -2v68h85v-23h-55v-20q1 0 5.5 0.5t6.5 0.5q19 0 30 -8q16 -7 16 -30zM405 334 q0 9 -15 15q-4 3 -16 6q-9 -7 -9 -17q0 -18 21 -18q9 0 12 3q7 2 7 11zM403 390q0 14 -18 14q-2 0 -11 -3q-5 -5 -5 -9q0 -8 11 -12l16 -6q7 9 7 16z" />
<glyph unicode="(" d="M45 126v548q0 52 36.5 89t89.5 37h548q53 0 89.5 -37t36.5 -89v-548q0 -52 -36.5 -89t-89.5 -37h-548q-53 0 -89.5 37t-36.5 89zM192 400q0 -104 74 -178.5t178 -74.5q105 0 179.5 74.5t74.5 178.5t-74.5 178.5t-179.5 74.5q-104 0 -178 -74.5t-74 -178.5zM238 400 q0 -86 60.5 -147t145.5 -61q86 0 147.5 61.5t61.5 146.5t-61.5 146.5t-147.5 61.5q-85 0 -145.5 -61t-60.5 -147zM418 270h-52v254h172v-44h-120v-58h104v-44h-104v-108z" />
<glyph unicode=")" d="M45 126v548q0 52 36.5 89t89.5 37h548q53 0 89.5 -37t36.5 -89v-548q0 -52 -36.5 -89t-89.5 -37h-548q-53 0 -89.5 37t-36.5 89zM192 429q0 -104 74 -178.5t178 -74.5q105 0 179.5 74.5t74.5 178.5t-74.5 178.5t-179.5 74.5q-104 0 -178 -74.5t-74 -178.5zM238 429 q0 -86 60.5 -146.5t145.5 -60.5q86 0 147.5 61t61.5 146t-61.5 146.5t-147.5 61.5q-85 0 -145.5 -61t-60.5 -147zM418 300h-52v253h82q54 0 83 -15t29 -63q0 -22 -7 -37t-16.5 -23t-25.5 -12.5t-29 -5.5t-32 -1h-32v-96zM213 145v-36h464v36h-464zM463 510h-45v-71h45 q45 0 45 35q0 36 -45 36z" />
<glyph unicode="*" d="M45 126v548q0 52 36.5 89t89.5 37h548q53 0 89.5 -37t36.5 -89v-548q0 -52 -36.5 -89t-89.5 -37h-548q-53 0 -89.5 37t-36.5 89zM192 400q0 -104 74 -178.5t178 -74.5q105 0 179.5 74.5t74.5 178.5t-74.5 178.5t-179.5 74.5q-104 0 -178 -74.5t-74 -178.5zM238 400 q0 -86 60.5 -147t145.5 -61q86 0 147.5 61.5t61.5 146.5t-61.5 146.5t-147.5 61.5q-85 0 -145.5 -61t-60.5 -147zM473 545l99 -253h-56l-22 58h-99l-21 -58h-55l96 253h58zM410 393h69l-35 93z" />
<glyph unicode="+" d="M698 400q0 88 -55 156l-32 -32q42 -57 42 -124t-42 -124l32 -33q55 68 55 157zM238 400q0 69 39 122l-32 34q-53 -67 -53 -156t53 -156l33 32q-40 56 -40 124zM568 567l32 32q-68 54 -156 54t-156 -54l32 -33q57 42 124 42t124 -41zM444 147q88 0 156 54l-32 32 q-57 -41 -124 -41t-124 41l-32 -32q68 -54 156 -54zM45 126v548q0 52 36.5 89t89.5 37h548q53 0 89.5 -37t36.5 -89v-548q0 -52 -36.5 -89t-89.5 -37h-548q-53 0 -89.5 37t-36.5 89zM188 169l25 -24l231 230l230 -230l24 25l-230 230l230 230l-24 25l-230 -230l-231 230 l-25 -24l231 -231z" />
<glyph unicode="," d="M45 126v548q0 52 36.5 89t89.5 37h548q53 0 89.5 -37t36.5 -89v-548q0 -52 -36.5 -89t-89.5 -37h-548q-53 0 -89.5 37t-36.5 89zM710 775h-530q-48 0 -79 -31t-31 -79v-530q0 -48 31 -79t79 -31h530q48 0 79 31t31 79v530q0 48 -31 79t-79 31z" />
<glyph unicode="-" d="M45 126v548q0 52 36.5 89t89.5 37h548q53 0 89.5 -37t36.5 -89v-548q0 -52 -36.5 -89t-89.5 -37h-548q-53 0 -89.5 37t-36.5 89zM710 775h-530q-48 0 -79 -31t-31 -79v-530q0 -48 31 -79t79 -31h530q48 0 79 31t31 79v530q0 48 -31 79t-79 31zM192 429q0 104 74 178.5 t178 74.5q105 0 179.5 -74.5t74.5 -178.5t-74.5 -178.5t-179.5 -74.5q-104 0 -178 74.5t-74 178.5zM238 429q0 -86 60.5 -146.5t145.5 -60.5q86 0 147.5 61t61.5 146t-61.5 146.5t-147.5 61.5q-85 0 -145.5 -61t-60.5 -147zM418 300h-52v253h172v-43h-120v-59h104v-43h-104 v-108zM213 109v36h464v-36h-464z" />
<glyph unicode="." d="M45 126v548q0 52 36.5 89t89.5 37h548q53 0 89.5 -37t36.5 -89v-548q0 -52 -36.5 -89t-89.5 -37h-548q-53 0 -89.5 37t-36.5 89zM710 775h-530q-48 0 -79 -31t-31 -79v-530q0 -48 31 -79t79 -31h530q48 0 79 31t31 79v530q0 48 -31 79t-79 31z" />
<glyph unicode="/" d="M262 188l-70 402h37l8 -46q8 2 13 2q9 0 24.5 -8.5t24.5 -8.5t24 8.5t24 8.5t24.5 -8.5t24.5 -8.5t24 8.5t24 8.5t24.5 -8.5t24.5 -8.5t24 8.5t24 8.5t24.5 -8.5t24.5 -8.5t24 8.5t24 8.5q10 0 16 -2l7 46h37l-70 -402h-366zM293 224h304l50 287q-1 0 -4.5 0.5t-4.5 0.5 q-9 0 -24 -8.5t-24 -8.5t-24.5 8.5t-24.5 8.5t-24 -8.5t-24 -8.5t-24.5 8.5t-24.5 8.5t-24 -8.5t-24 -8.5t-24.5 8.5t-24.5 8.5t-24 -8.5t-24 -8.5t-24.5 8.5t-24.5 8.5q-5 0 -7 -1zM45 126v548q0 52 36.5 89t89.5 37h548q53 0 89.5 -37t36.5 -89v-548q0 -52 -36.5 -89 t-89.5 -37h-548q-53 0 -89.5 37t-36.5 89zM710 775h-530q-48 0 -79 -31t-31 -79v-530q0 -48 31 -79t79 -31h530q48 0 79 31t31 79v530q0 48 -31 79t-79 31zM549 360q0 -32 -12 -48q-13 -15 -38 -15q-26 0 -38 16q-11 15 -11 47t11 47q12 16 38 16t38 -17q12 -16 12 -46z M430 366q0 -33 -16 -50q-18 -19 -51 -19q-15 0 -21 2l3 24q4 -4 19 -4q14 0 22 6q11 8 12 23q-14 -8 -28 -8t-24 6q-14 11 -14 33q0 19 13.5 31.5t34.5 12.5q23 0 35 -13q15 -15 15 -44zM518 360q0 41 -19 41q-18 0 -18 -42q0 -40 18 -40q19 0 19 41zM399 371q0 18 -8 26 q-5 5 -11 5q-5 0 -12 -5q-5 -7 -5 -17t6 -16q4 -3 15 -3q8 0 14 2v3q1 3 1 5z" />
<glyph unicode="0" d="M45 126v548q0 52 36.5 89t89.5 37h548q53 0 89.5 -37t36.5 -89v-548q0 -52 -36.5 -89t-89.5 -37h-548q-53 0 -89.5 37t-36.5 89zM710 775h-530q-48 0 -79 -31t-31 -79v-530q0 -48 31 -79t79 -31h530q48 0 79 31t31 79v530q0 48 -31 79t-79 31zM192 429q0 104 74 178.5 t178 74.5q105 0 179.5 -74.5t74.5 -178.5t-74.5 -178.5t-179.5 -74.5q-104 0 -178 74.5t-74 178.5zM238 429q0 -86 60.5 -146.5t145.5 -60.5q86 0 147.5 61t61.5 146t-61.5 146.5t-147.5 61.5q-85 0 -145.5 -61t-60.5 -147zM418 300h-52v253h82q54 0 83 -15t29 -63 q0 -22 -7 -37t-16.5 -23t-25.5 -12.5t-29 -5.5t-32 -1h-32v-96zM213 109v36h464v-36h-464zM463 510h-45v-71h45q45 0 45 35q0 36 -45 36z" />
<glyph unicode="1" d="M45 126v548q0 52 36.5 89t89.5 37h548q53 0 89.5 -37t36.5 -89v-548q0 -52 -36.5 -89t-89.5 -37h-548q-53 0 -89.5 37t-36.5 89zM710 775h-530q-48 0 -79 -31t-31 -79v-530q0 -48 31 -79t79 -31h530q48 0 79 31t31 79v530q0 48 -31 79t-79 31zM155 204v17q0 100 53 169.5 t125 69.5h299l-18 126h-299q-21 0 -21 23q0 9 5.5 16t14.5 7h342l63 -428h-564zM202 250h462l-25 164h-306q-52 0 -91.5 -55t-39.5 -109z" />
<glyph unicode="2" d="M155 204v17q0 100 53 169.5t125 69.5h299l-18 126h-299q-21 0 -21 23q0 9 5.5 16t14.5 7h342l63 -428h-564zM202 250h462l-25 164h-306q-52 0 -91.5 -55t-39.5 -109zM45 126v548q0 52 36.5 89t89.5 37h548q53 0 89.5 -37t36.5 -89v-548q0 -52 -36.5 -89t-89.5 -37h-548 q-53 0 -89.5 37t-36.5 89zM710 775h-530q-48 0 -79 -31t-31 -79v-530q0 -48 31 -79t79 -31h530q48 0 79 31t31 79v530q0 48 -31 79t-79 31zM405 334q0 15 10.5 25.5t25.5 10.5t25.5 -10.5t10.5 -25.5t-10.5 -25.5t-25.5 -10.5t-25.5 10.5t-10.5 25.5z" />
<glyph unicode="3" d="M155 204v17q0 100 53 169.5t125 69.5h299l-18 126h-299q-21 0 -21 23q0 9 5.5 16t14.5 7h342l63 -428h-564zM202 250h462l-25 164h-306q-52 0 -91.5 -55t-39.5 -109zM45 126v548q0 52 36.5 89t89.5 37h548q53 0 89.5 -37t36.5 -89v-548q0 -52 -36.5 -89t-89.5 -37h-548 q-53 0 -89.5 37t-36.5 89zM710 775h-530q-48 0 -79 -31t-31 -79v-530q0 -48 31 -79t79 -31h530q48 0 79 31t31 79v530q0 48 -31 79t-79 31zM453 334q0 15 10.5 25.5t25.5 10.5t25.5 -10.5t10.5 -25.5t-10.5 -25.5t-25.5 -10.5t-25.5 10.5t-10.5 25.5zM357 334 q0 15 10.5 25.5t25.5 10.5t25.5 -10.5t10.5 -25.5t-10.5 -25.5t-25.5 -10.5t-25.5 10.5t-10.5 25.5z" />
<glyph unicode="4" d="M405 334q0 15 10.5 25.5t25.5 10.5t25.5 -10.5t10.5 -25.5t-10.5 -25.5t-25.5 -10.5t-25.5 10.5t-10.5 25.5zM155 204v17q0 100 53 169.5t125 69.5h299l-18 126h-299q-21 0 -21 23q0 9 5.5 16t14.5 7h342l63 -428h-564zM202 250h462l-25 164h-306q-52 0 -91.5 -55 t-39.5 -109zM45 126v548q0 52 36.5 89t89.5 37h548q53 0 89.5 -37t36.5 -89v-548q0 -52 -36.5 -89t-89.5 -37h-548q-53 0 -89.5 37t-36.5 89zM710 775h-530q-48 0 -79 -31t-31 -79v-530q0 -48 31 -79t79 -31h530q48 0 79 31t31 79v530q0 48 -31 79t-79 31zM501 334 q0 15 10.5 25.5t25.5 10.5t25.5 -10.5t10.5 -25.5t-10.5 -25.5t-25.5 -10.5t-25.5 10.5t-10.5 25.5zM309 334q0 15 10.5 25.5t25.5 10.5t25.5 -10.5t10.5 -25.5t-10.5 -25.5t-25.5 -10.5t-25.5 10.5t-10.5 25.5z" />
<glyph unicode="5" d="M45 126v548q0 52 36.5 89t89.5 37h548q53 0 89.5 -37t36.5 -89v-548q0 -52 -36.5 -89t-89.5 -37h-548q-53 0 -89.5 37t-36.5 89zM710 775h-530q-48 0 -79 -31t-31 -79v-530q0 -48 31 -79t79 -31h530q48 0 79 31t31 79v530q0 48 -31 79t-79 31zM639 414h-132l46 46h79 l-10 69l43 43l54 -368h-30l-46 46h21zM202 250h65l-46 -46h-66v17q0 100 53 169.5t125 69.5h25l46 -46h-71q-52 0 -91.5 -55t-39.5 -109zM315 586q-21 0 -21 23q0 9 5.5 16t14.5 7h335l-46 -46h-288zM343 250h225l46 -46h-317zM455 438l-22 22h44zM225 145l-25 24l231 231 l-231 231l25 24l231 -230l230 230l24 -25l-230 -230l230 -230l-24 -25l-230 230z" />
<glyph unicode="6" d="M45 126v548q0 52 36.5 89t89.5 37h548q53 0 89.5 -37t36.5 -89v-548q0 -52 -36.5 -89t-89.5 -37h-548q-53 0 -89.5 37t-36.5 89zM710 775h-530q-48 0 -79 -31t-31 -79v-530q0 -48 31 -79t79 -31h530q48 0 79 31t31 79v530q0 48 -31 79t-79 31zM192 400q0 104 74 178.5 t178 74.5q105 0 179.5 -74.5t74.5 -178.5t-74.5 -178.5t-179.5 -74.5q-104 0 -178 74.5t-74 178.5zM238 400q0 -86 60.5 -147t145.5 -61q86 0 147.5 61.5t61.5 146.5t-61.5 146.5t-147.5 61.5q-85 0 -145.5 -61t-60.5 -147z" />
<glyph unicode="7" d="M45 126v548q0 52 36.5 89t89.5 37h548q53 0 89.5 -37t36.5 -89v-548q0 -52 -36.5 -89t-89.5 -37h-548q-53 0 -89.5 37t-36.5 89zM710 775h-530q-48 0 -79 -31t-31 -79v-530q0 -48 31 -79t79 -31h530q48 0 79 31t31 79v530q0 48 -31 79t-79 31zM192 400q0 104 74 178.5 t178 74.5q105 0 179.5 -74.5t74.5 -178.5t-74.5 -178.5t-179.5 -74.5q-104 0 -178 74.5t-74 178.5zM238 400q0 -86 60.5 -146.5t145.5 -60.5q86 0 147.5 61t61.5 146t-61.5 146.5t-147.5 61.5q-85 0 -145.5 -61t-60.5 -147zM418 271h-52v253h82q54 0 83 -15t29 -63 q0 -22 -7 -37t-16.5 -23t-25.5 -12.5t-29 -5.5t-32 -1h-32v-96zM463 481h-45v-71h45q45 0 45 35q0 36 -45 36z" />
<glyph unicode="8" d="M192 400q0 104 74 178.5t178 74.5q105 0 179.5 -74.5t74.5 -178.5t-74.5 -178.5t-179.5 -74.5q-104 0 -178 74.5t-74 178.5zM238 400q0 -86 60.5 -147t145.5 -61q86 0 147.5 61.5t61.5 146.5t-61.5 146.5t-147.5 61.5q-85 0 -145.5 -61t-60.5 -147zM45 126v548 q0 52 36.5 89t89.5 37h548q53 0 89.5 -37t36.5 -89v-548q0 -52 -36.5 -89t-89.5 -37h-548q-53 0 -89.5 37t-36.5 89zM710 775h-530q-48 0 -79 -31t-31 -79v-530q0 -48 31 -79t79 -31h530q48 0 79 31t31 79v530q0 48 -31 79t-79 31zM473 545l99 -253h-56l-22 58h-99l-21 -58 h-55l96 253h58zM410 393h69l-35 93z" />
<glyph unicode="9" d="M192 400q0 104 74 178.5t178 74.5q105 0 179.5 -74.5t74.5 -178.5t-74.5 -178.5t-179.5 -74.5q-104 0 -178 74.5t-74 178.5zM238 400q0 -86 60.5 -147t145.5 -61q86 0 147.5 61.5t61.5 146.5t-61.5 146.5t-147.5 61.5q-85 0 -145.5 -61t-60.5 -147zM45 126v548 q0 52 36.5 89t89.5 37h548q53 0 89.5 -37t36.5 -89v-548q0 -52 -36.5 -89t-89.5 -37h-548q-53 0 -89.5 37t-36.5 89zM710 775h-530q-48 0 -79 -31t-31 -79v-530q0 -48 31 -79t79 -31h530q48 0 79 31t31 79v530q0 48 -31 79t-79 31zM418 270h-52v254h172v-44h-120v-58h104 v-44h-104v-108z" />
<glyph unicode=":" d="M192 590l70 -402h366l70 402h-37l-7 -46q-6 2 -16 2q-9 0 -24 -8.5t-24 -8.5t-24.5 8.5t-24.5 8.5t-24 -8.5t-24 -8.5t-24.5 8.5t-24.5 8.5t-24 -8.5t-24 -8.5t-24.5 8.5t-24.5 8.5t-24 -8.5t-24 -8.5t-24.5 8.5t-24.5 8.5q-5 0 -13 -2l-8 46h-37zM597 224h-304l-50 287 q2 1 7 1q9 0 24.5 -8.5t24.5 -8.5t24 8.5t24 8.5t24.5 -8.5t24.5 -8.5t24 8.5t24 8.5t24.5 -8.5t24.5 -8.5t24 8.5t24 8.5t24.5 -8.5t24.5 -8.5t24 8.5t24 8.5q1 0 4.5 -0.5t4.5 -0.5zM45 126v548q0 52 36.5 89t89.5 37h548q53 0 89.5 -37t36.5 -89v-548q0 -52 -36.5 -89 t-89.5 -37h-548q-53 0 -89.5 37t-36.5 89zM557 361q0 29 -12 46t-38 17t-38 -16q-11 -15 -11 -47t11 -47q12 -16 38 -16q25 0 38 15q12 17 12 48zM438 397v24h-93v-23h60l-55 -97h34zM526 361q0 -41 -19 -41q-18 0 -18 40q0 42 18 42q19 0 19 -41z" />
<glyph unicode=";" d="M262 188l-70 402h37l8 -46q8 2 13 2q9 0 24.5 -8.5t24.5 -8.5t24 8.5t24 8.5t24.5 -8.5t24.5 -8.5t24 8.5t24 8.5t24.5 -8.5t24.5 -8.5t24 8.5t24 8.5t24.5 -8.5t24.5 -8.5t24 8.5t24 8.5q10 0 16 -2l7 46h37l-70 -402h-366zM293 224h304l50 287q-1 0 -4.5 0.5t-4.5 0.5 q-9 0 -24 -8.5t-24 -8.5t-24.5 8.5t-24.5 8.5t-24 -8.5t-24 -8.5t-24.5 8.5t-24.5 8.5t-24 -8.5t-24 -8.5t-24.5 8.5t-24.5 8.5t-24 -8.5t-24 -8.5t-24.5 8.5t-24.5 8.5q-5 0 -7 -1zM45 126v548q0 52 36.5 89t89.5 37h548q53 0 89.5 -37t36.5 -89v-548q0 -52 -36.5 -89 t-89.5 -37h-548q-53 0 -89.5 37t-36.5 89zM710 775h-530q-48 0 -79 -31t-31 -79v-530q0 -48 31 -79t79 -31h530q48 0 79 31t31 79v530q0 48 -31 79t-79 31zM557 361q0 -31 -12 -48q-13 -15 -38 -15q-26 0 -38 16q-11 15 -11 47t11 47q12 16 38 16t38 -17t12 -46zM438 421 v-24l-54 -96h-34l55 97h-60v23h93zM526 361q0 41 -19 41q-18 0 -18 -42q0 -40 18 -40q19 0 19 41z" />
<glyph unicode="&#x3c;" d="M45 126v548q0 52 36.5 89t89.5 37h548q53 0 89.5 -37t36.5 -89v-548q0 -52 -36.5 -89t-89.5 -37h-548q-53 0 -89.5 37t-36.5 89z" />
<glyph unicode="=" d="M45 126v548q0 52 36.5 89t89.5 37h548q53 0 89.5 -37t36.5 -89v-548q0 -52 -36.5 -89t-89.5 -37h-548q-53 0 -89.5 37t-36.5 89zM710 775h-530q-48 0 -79 -31t-31 -79v-530q0 -48 31 -79t79 -31h530q48 0 79 31t31 79v530q0 48 -31 79t-79 31zM698 400q0 -89 -55 -157 l-32 33q42 57 42 124t-42 124l32 32q55 -68 55 -156zM238 400q0 -68 40 -124l-33 -32q-53 67 -53 156t53 156l32 -34q-39 -53 -39 -122zM600 599l-32 -32q-57 41 -124 41t-124 -42l-32 33q68 54 156 54t156 -54zM444 147q-88 0 -156 54l32 32q57 -41 124 -41t124 41l32 -32 q-68 -54 -156 -54zM213 145l-25 24l231 231l-231 231l25 24l231 -230l230 230l24 -25l-230 -230l230 -230l-24 -25l-230 230z" />
<glyph unicode="&#x3e;" d="M45 126v548q0 52 36.5 89t89.5 37h548q53 0 89.5 -37t36.5 -89v-548q0 -52 -36.5 -89t-89.5 -37h-548q-53 0 -89.5 37t-36.5 89z" />
<glyph unicode="?" d="M192 590l70 -402h366l70 402h-37l-7 -46q-6 2 -16 2q-9 0 -24 -8.5t-24 -8.5t-24.5 8.5t-24.5 8.5t-24 -8.5t-24 -8.5t-24.5 8.5t-24.5 8.5t-24 -8.5t-24 -8.5t-24.5 8.5t-24.5 8.5t-24 -8.5t-24 -8.5t-24.5 8.5t-24.5 8.5q-5 0 -13 -2l-8 46h-37zM597 224h-304l-50 287 q2 1 7 1q9 0 24.5 -8.5t24.5 -8.5t24 8.5t24 8.5t24.5 -8.5t24.5 -8.5t24 8.5t24 8.5t24.5 -8.5t24.5 -8.5t24 8.5t24 8.5t24.5 -8.5t24.5 -8.5t24 8.5t24 8.5q1 0 4.5 -0.5t4.5 -0.5zM45 126v548q0 52 36.5 89t89.5 37h548q53 0 89.5 -37t36.5 -89v-548q0 -52 -36.5 -89 t-89.5 -37h-548q-53 0 -89.5 37t-36.5 89zM549 360q0 30 -12 46q-12 17 -38 17t-38 -16q-11 -15 -11 -47t11 -47q12 -16 38 -16q25 0 38 15q12 16 12 48zM430 366q0 29 -15 44q-12 13 -35 13q-21 0 -34.5 -12.5t-13.5 -31.5q0 -22 14 -33q10 -6 24 -6t28 8q-1 -15 -12 -23 q-8 -6 -22 -6q-15 0 -19 4l-3 -24q6 -2 21 -2q33 0 51 19q16 17 16 50zM518 360q0 -41 -19 -41q-18 0 -18 40q0 42 18 42q19 0 19 -41zM399 371q0 -2 -1 -5v-3q-6 -2 -14 -2q-11 0 -15 3q-6 6 -6 16t5 17q7 5 12 5q6 0 11 -5q8 -8 8 -26z" />
<glyph unicode="@" d="M155 221v-17h564l-63 428h-342q-9 0 -14.5 -7t-5.5 -16q0 -23 21 -23h299l18 -126h-299q-72 0 -125 -69.5t-53 -169.5zM202 250h462l-25 164h-306q-52 0 -91.5 -55t-39.5 -109zM45 126v548q0 52 36.5 89t89.5 37h548q53 0 89.5 -37t36.5 -89v-548q0 -52 -36.5 -89 t-89.5 -37h-548q-53 0 -89.5 37t-36.5 89zM405 334q0 15 10.5 25.5t25.5 10.5t25.5 -10.5t10.5 -25.5t-10.5 -25.5t-25.5 -10.5t-25.5 10.5t-10.5 25.5z" />
<glyph unicode="A" d="M444 682l-252 -506h506zM444 578l-174 -356h350zM45 126v548q0 52 36.5 89t89.5 37h548q53 0 89.5 -37t36.5 -89v-548q0 -52 -36.5 -89t-89.5 -37h-548q-53 0 -89.5 37t-36.5 89z" />
<glyph unicode="B" d="M45 126v548q0 52 36.5 89t89.5 37h548q53 0 89.5 -37t36.5 -89v-548q0 -52 -36.5 -89t-89.5 -37h-548q-53 0 -89.5 37t-36.5 89zM444 682l-252 -506h506zM444 578l-174 -356h350zM439 303l30 -9q-11 -38 -50 -38q-58 0 -58 58q0 28 14.5 43t40.5 15q40 0 52 -35l-30 -6 q-3 15 -20 15q-23 0 -23 -32t21 -32q18 0 23 21zM487 259v110h30v-110h-30z" />
<glyph unicode="C" d="M444 682l-252 -506h506zM444 578l-174 -356h67l142 284zM391 222h53l89 177l-27 53zM620 222l-61 123l-61 -123h122zM45 126v548q0 52 36.5 89t89.5 37h548q53 0 89.5 -37t36.5 -89v-548q0 -52 -36.5 -89t-89.5 -37h-548q-53 0 -89.5 37t-36.5 89z" />
<glyph unicode="D" d="M577 222h-266l-46 -46h358zM400 487l44 91l44 -92l36 36l-80 160l-79 -160zM553 464l-36 -36l59 -116l109 -110zM336 463l-131 -261l108 108l58 118zM45 126v548q0 52 36.5 89t89.5 37h548q53 0 89.5 -37t36.5 -89v-548q0 -52 -36.5 -89t-89.5 -37h-548q-53 0 -89.5 37 t-36.5 89zM188 167l25 -24l231 230l230 -230l24 25l-230 230l223 223l-24 25l-223 -223l-223 223l-25 -24l223 -224z" />
<glyph unicode="E" d="M192 653v-506h506v506h-506zM233 613v-426h425v426h-425zM45 126v548q0 52 36.5 89t89.5 37h548q53 0 89.5 -37t36.5 -89v-548q0 -52 -36.5 -89t-89.5 -37h-548q-53 0 -89.5 37t-36.5 89z" />
<glyph unicode="F" d="M45 126v548q0 52 36.5 89t89.5 37h548q53 0 89.5 -37t36.5 -89v-548q0 -52 -36.5 -89t-89.5 -37h-548q-53 0 -89.5 37t-36.5 89zM698 188v424l-40 -40v-345zM233 232v333l-41 42v-416zM231 653l40 -40h343l40 40h-423zM232 147h421l-40 40h-341zM171 151l25 -24l248 248 l248 -248l24 25l-248 248l247 248l-24 25l-247 -248l-249 248l-25 -24l249 -249z" />
<glyph unicode="G" d="M45 126v548q0 52 36.5 89t89.5 37h548q53 0 89.5 -37t36.5 -89v-548q0 -52 -36.5 -89t-89.5 -37h-548q-53 0 -89.5 37t-36.5 89zM192 653v-506h506v506h-506zM270 400q0 -72 51 -124t123 -52q73 0 125 52t52 124t-52 124t-125 52q-72 0 -123 -52t-51 -124zM466 187h192 v191q-8 -76 -62 -130t-130 -61zM658 613h-192q76 -8 130.5 -62t61.5 -130v192zM422 187q-73 7 -126 59t-63 125v-184h189zM233 613v-184q10 73 63 125t126 59h-189z" />
<glyph unicode="H" d="M45 126v548q0 52 36.5 89t89.5 37h548q53 0 89.5 -37t36.5 -89v-548q0 -52 -36.5 -89t-89.5 -37h-548q-53 0 -89.5 37t-36.5 89zM274 270l28 29q-32 46 -32 101q0 54 31 100l-28 27q-32 -43 -40 -98v138l-41 41v-420l41 41v142q7 -57 41 -101zM698 188v427l-40 -40v-154 q-6 58 -45 109l-27 -27q35 -46 35 -103q0 -56 -33 -102l27 -28q35 48 43 108v-150zM422 187h-151l-41 -40h423l-40 40h-147q61 6 106 41l-28 28q-46 -32 -100 -32q-55 0 -102 34l-28 -28q49 -37 108 -43zM466 613h150l40 40h-423l40 -40h149q-57 -6 -106 -43l27 -27 q44 33 101 33q56 0 102 -33l27 27q-46 35 -107 43zM171 151l25 -24l248 248l248 -248l24 25l-248 248l247 248l-24 25l-247 -248l-249 248l-25 -24l249 -249z" />
<glyph unicode="I" d="M45 126v548q0 52 36.5 89t89.5 37h548q53 0 89.5 -37t36.5 -89v-548q0 -52 -36.5 -89t-89.5 -37h-548q-53 0 -89.5 37t-36.5 89zM192 653v-506h506v506h-506zM270 400q0 -72 51 -124t123 -52q73 0 125 52t52 124t-52 124t-125 52q-72 0 -123 -52t-51 -124zM466 187h192 v191q-8 -76 -62 -130t-130 -61zM658 613h-192q76 -8 130.5 -62t61.5 -130v192zM422 187q-73 7 -126 59t-63 125v-184h189zM233 613v-184q10 73 63 125t126 59h-189zM408 400q0 15 10.5 25.5t25.5 10.5t25.5 -10.5t10.5 -25.5t-10.5 -25.5t-25.5 -10.5t-25.5 10.5t-10.5 25.5 z" />
<glyph unicode="J" d="M45 126v548q0 52 36.5 89t89.5 37h548q53 0 89.5 -37t36.5 -89v-548q0 -52 -36.5 -89t-89.5 -37h-548q-53 0 -89.5 37t-36.5 89zM192 653v-506h506v506h-506zM270 400q0 -72 51 -124t123 -52q73 0 125 52t52 124t-52 124t-125 52q-72 0 -123 -52t-51 -124zM466 187h192 v191q-8 -76 -62 -130t-130 -61zM658 613h-192q76 -8 130.5 -62t61.5 -130v192zM422 187q-73 7 -126 59t-63 125v-184h189zM233 613v-184q10 73 63 125t126 59h-189zM456 400q0 15 10.5 25.5t25.5 10.5t25.5 -10.5t10.5 -25.5t-10.5 -25.5t-25.5 -10.5t-25.5 10.5t-10.5 25.5 zM360 400q0 15 10.5 25.5t25.5 10.5t25.5 -10.5t10.5 -25.5t-10.5 -25.5t-25.5 -10.5t-25.5 10.5t-10.5 25.5z" />
<glyph unicode="K" d="M192 653v-506h506v506h-506zM270 400q0 -72 51 -124t123 -52q73 0 125 52t52 124t-52 124t-125 52q-72 0 -123 -52t-51 -124zM466 187h192v191q-8 -76 -62 -130t-130 -61zM658 613h-192q76 -8 130.5 -62t61.5 -130v192zM422 187q-73 7 -126 59t-63 125v-184h189zM233 613 v-184q10 73 63 125t126 59h-189zM408 400q0 15 10.5 25.5t25.5 10.5t25.5 -10.5t10.5 -25.5t-10.5 -25.5t-25.5 -10.5t-25.5 10.5t-10.5 25.5zM45 126v548q0 52 36.5 89t89.5 37h548q53 0 89.5 -37t36.5 -89v-548q0 -52 -36.5 -89t-89.5 -37h-548q-53 0 -89.5 37t-36.5 89z M504 400q0 15 10.5 25.5t25.5 10.5t25.5 -10.5t10.5 -25.5t-10.5 -25.5t-25.5 -10.5t-25.5 10.5t-10.5 25.5zM312 400q0 15 10.5 25.5t25.5 10.5t25.5 -10.5t10.5 -25.5t-10.5 -25.5t-25.5 -10.5t-25.5 10.5t-10.5 25.5z" />
<glyph unicode="L" d="M45 126v548q0 52 36.5 89t89.5 37h548q53 0 89.5 -37t36.5 -89v-548q0 -52 -36.5 -89t-89.5 -37h-548q-53 0 -89.5 37t-36.5 89zM192 682v-506h506v506h-506zM270 429q0 -72 51 -124t123 -52q73 0 125 52t52 124t-52 124t-125 52q-72 0 -123 -52t-51 -124zM466 216h192 v191q-8 -76 -62 -130t-130 -61zM658 642h-192q76 -8 130.5 -62t61.5 -130v192zM422 216q-73 7 -126 59t-63 125v-184h189zM233 642v-184q10 73 63 125t126 59h-189zM192 145v-36h506v36h-506z" />
<glyph unicode="M" d="M45 126v548q0 52 36.5 89t89.5 37h548q53 0 89.5 -37t36.5 -89v-548q0 -52 -36.5 -89t-89.5 -37h-548q-53 0 -89.5 37t-36.5 89zM192 119v-36h506v36h-506zM192 718v-506h506v506h-506zM270 465q0 72 51 124t123 52q73 0 125 -52t52 -124t-52 -124t-125 -52 q-72 0 -123 52t-51 124zM658 252h-192q76 7 130 61t62 130v-191zM466 678h192v-192q-7 76 -61.5 130t-130.5 62zM422 252h-189v184q10 -73 63 -125t126 -59zM233 494v184h189q-73 -7 -126 -59t-63 -125zM192 181v-36h506v36h-506z" />
<glyph unicode="N" d="M45 126v548q0 52 36.5 89t89.5 37h548q53 0 89.5 -37t36.5 -89v-548q0 -52 -36.5 -89t-89.5 -37h-548q-53 0 -89.5 37t-36.5 89zM192 653v-506h506v506h-506zM658 187h-425v344q70 -73 211 -73q64 0 121.5 19.5t92.5 55.5v-346zM444 495q-78 0 -144.5 35t-66.5 83h425 q0 -48 -68.5 -83t-145.5 -35z" />
<glyph unicode="O" d="M45 126v548q0 52 36.5 89t89.5 37h548q53 0 89.5 -37t36.5 -89v-548q0 -52 -36.5 -89t-89.5 -37h-548q-53 0 -89.5 37t-36.5 89zM192 653v-506h506v506h-506zM233 187v426h425v-426h-425zM299 418v-36h293v36h-293z" />
<glyph unicode="P" d="M45 126v548q0 52 36.5 89t89.5 37h548q53 0 89.5 -37t36.5 -89v-548q0 -52 -36.5 -89t-89.5 -37h-548q-53 0 -89.5 37t-36.5 89zM192 653v-506h506v506h-506zM233 308l305 305h120v-426h-425v121zM233 423l190 190h59l-249 -249v59zM233 480v133h133z" />
<glyph unicode="Q" d="M45 126v548q0 52 36.5 89t89.5 37h548q53 0 89.5 -37t36.5 -89v-548q0 -52 -36.5 -89t-89.5 -37h-548q-53 0 -89.5 37t-36.5 89zM342 253h36v294h-36v-294zM192 653v-506h506v506h-506zM233 187v426h425v-426h-425zM510 253h36v294h-36v-294zM426 253h36v294h-36v-294z " />
<glyph unicode="R" d="M45 126v548q0 52 36.5 89t89.5 37h548q53 0 89.5 -37t36.5 -89v-548q0 -52 -36.5 -89t-89.5 -37h-548q-53 0 -89.5 37t-36.5 89zM320 318l58 105l-65 65h-121v-216h37q37 0 62 17zM514 287l-21 21q-15 -9 -40 -9h-66l-32 -30h98q10 0 25.5 4.5t25.5 8.5zM463 461l30 30 h-72q-10 0 -22 -4l27 -26h37zM574 486l-26 -25q26 -2 26 -24l-44 -80l22 -21l53 94q16 28 39 28h26v-156h-85l30 -30h83v216h-54q-30 0 -47 -17q-3 3 -8.5 7t-10 6.5t-4.5 1.5zM220 302v156h101q29 0 29 -18q0 -5 -1 -7l-56 -100q-18 -31 -64 -31h-9zM188 169l25 -24 l231 230l230 -230l24 25l-230 230l230 230l-24 25l-230 -230l-231 230l-25 -24l231 -231z" />
<glyph unicode="S" d="M45 126v548q0 52 36.5 89t89.5 37h548q53 0 89.5 -37t36.5 -89v-548q0 -52 -36.5 -89t-89.5 -37h-548q-53 0 -89.5 37t-36.5 89zM192 590l70 -402h366l70 402h-37l-7 -46q-6 2 -16 2q-9 0 -24 -8.5t-24 -8.5t-24.5 8.5t-24.5 8.5t-24 -8.5t-24 -8.5t-24.5 8.5t-24.5 8.5 t-24 -8.5t-24 -8.5t-24.5 8.5t-24.5 8.5t-24 -8.5t-24 -8.5t-24.5 8.5t-24.5 8.5q-5 0 -13 -2l-8 46h-37zM597 224h-304l-50 287q2 1 7 1q9 0 24.5 -8.5t24.5 -8.5t24 8.5t24 8.5t24.5 -8.5t24.5 -8.5t24 8.5t24 8.5t24.5 -8.5t24.5 -8.5t24 8.5t24 8.5t24.5 -8.5t24.5 -8.5 t24 8.5t24 8.5q1 0 4.5 -0.5t4.5 -0.5z" />
<glyph unicode="T" d="M45 126v548q0 52 36.5 89t89.5 37h548q53 0 89.5 -37t36.5 -89v-548q0 -52 -36.5 -89t-89.5 -37h-548q-53 0 -89.5 37t-36.5 89zM192 590l70 -402h366l70 402h-37l-7 -46q-6 2 -16 2q-9 0 -24 -8.5t-24 -8.5t-24.5 8.5t-24.5 8.5t-24 -8.5t-24 -8.5t-24.5 8.5t-24.5 8.5 t-24 -8.5t-24 -8.5t-24.5 8.5t-24.5 8.5t-24 -8.5t-24 -8.5t-24.5 8.5t-24.5 8.5q-5 0 -13 -2l-8 46h-37zM597 224h-304l-50 287q2 1 7 1q9 0 24.5 -8.5t24.5 -8.5t24 8.5t24 8.5t24.5 -8.5t24.5 -8.5t24 8.5t24 8.5t24.5 -8.5t24.5 -8.5t24 8.5t24 8.5t24.5 -8.5t24.5 -8.5 t24 8.5t24 8.5q1 0 4.5 -0.5t4.5 -0.5zM408 374q0 -15 10.5 -25.5t25.5 -10.5t25.5 10.5t10.5 25.5t-10.5 25.5t-25.5 10.5t-25.5 -10.5t-10.5 -25.5z" />
<glyph unicode="U" d="M45 126v548q0 52 36.5 89t89.5 37h548q53 0 89.5 -37t36.5 -89v-548q0 -52 -36.5 -89t-89.5 -37h-548q-53 0 -89.5 37t-36.5 89zM192 590l70 -402h366l70 402h-37l-7 -46q-6 2 -16 2q-9 0 -24 -8.5t-24 -8.5t-24.5 8.5t-24.5 8.5t-24 -8.5t-24 -8.5t-24.5 8.5t-24.5 8.5 t-24 -8.5t-24 -8.5t-24.5 8.5t-24.5 8.5t-24 -8.5t-24 -8.5t-24.5 8.5t-24.5 8.5q-5 0 -13 -2l-8 46h-37zM597 224h-304l-50 287q2 1 7 1q9 0 24.5 -8.5t24.5 -8.5t24 8.5t24 8.5t24.5 -8.5t24.5 -8.5t24 8.5t24 8.5t24.5 -8.5t24.5 -8.5t24 8.5t24 8.5t24.5 -8.5t24.5 -8.5 t24 8.5t24 8.5q1 0 4.5 -0.5t4.5 -0.5zM456 374q0 -15 10.5 -25.5t25.5 -10.5t25.5 10.5t10.5 25.5t-10.5 25.5t-25.5 10.5t-25.5 -10.5t-10.5 -25.5zM360 374q0 -15 10.5 -25.5t25.5 -10.5t25.5 10.5t10.5 25.5t-10.5 25.5t-25.5 10.5t-25.5 -10.5t-10.5 -25.5z" />
<glyph unicode="V" d="M45 126v548q0 52 36.5 89t89.5 37h548q53 0 89.5 -37t36.5 -89v-548q0 -52 -36.5 -89t-89.5 -37h-548q-53 0 -89.5 37t-36.5 89zM192 590l70 -402h366l70 402h-37l-7 -46q-6 2 -16 2q-9 0 -24 -8.5t-24 -8.5t-24.5 8.5t-24.5 8.5t-24 -8.5t-24 -8.5t-24.5 8.5t-24.5 8.5 t-24 -8.5t-24 -8.5t-24.5 8.5t-24.5 8.5t-24 -8.5t-24 -8.5t-24.5 8.5t-24.5 8.5q-5 0 -13 -2l-8 46h-37zM597 224h-304l-50 287q2 1 7 1q9 0 24.5 -8.5t24.5 -8.5t24 8.5t24 8.5t24.5 -8.5t24.5 -8.5t24 8.5t24 8.5t24.5 -8.5t24.5 -8.5t24 8.5t24 8.5t24.5 -8.5t24.5 -8.5 t24 8.5t24 8.5q1 0 4.5 -0.5t4.5 -0.5zM504 374q0 -15 10.5 -25.5t25.5 -10.5t25.5 10.5t10.5 25.5t-10.5 25.5t-25.5 10.5t-25.5 -10.5t-10.5 -25.5zM408 374q0 -15 10.5 -25.5t25.5 -10.5t25.5 10.5t10.5 25.5t-10.5 25.5t-25.5 10.5t-25.5 -10.5t-10.5 -25.5zM312 374 q0 -15 10.5 -25.5t25.5 -10.5t25.5 10.5t10.5 25.5t-10.5 25.5t-25.5 10.5t-25.5 -10.5t-10.5 -25.5z" />
<glyph unicode="W" d="M45 126v548q0 52 36.5 89t89.5 37h548q53 0 89.5 -37t36.5 -89v-548q0 -52 -36.5 -89t-89.5 -37h-548q-53 0 -89.5 37t-36.5 89zM192 618l70 -402h366l70 402h-37l-7 -46q-6 2 -16 2q-9 0 -24 -8.5t-24 -8.5t-24.5 8.5t-24.5 8.5t-24 -8.5t-24 -8.5t-24.5 8.5t-24.5 8.5 t-24 -8.5t-24 -8.5t-24.5 8.5t-24.5 8.5t-24 -8.5t-24 -8.5t-24.5 8.5t-24.5 8.5q-5 0 -13 -2l-8 46h-37zM597 252h-304l-50 287q2 1 7 1q9 0 24.5 -8.5t24.5 -8.5t24 8.5t24 8.5t24.5 -8.5t24.5 -8.5t24 8.5t24 8.5t24.5 -8.5t24.5 -8.5t24 8.5t24 8.5t24.5 -8.5t24.5 -8.5 t24 8.5t24 8.5q1 0 4.5 -0.5t4.5 -0.5zM192 173v-36h506v36h-506z" />
<glyph unicode="X" d="M45 126v548q0 52 36.5 89t89.5 37h548q53 0 89.5 -37t36.5 -89v-548q0 -52 -36.5 -89t-89.5 -37h-548q-53 0 -89.5 37t-36.5 89zM192 658l70 -402h366l70 402h-37l-7 -46q-6 2 -16 2q-9 0 -24 -8.5t-24 -8.5t-24.5 8.5t-24.5 8.5t-24 -8.5t-24 -8.5t-24.5 8.5t-24.5 8.5 t-24 -8.5t-24 -8.5t-24.5 8.5t-24.5 8.5t-24 -8.5t-24 -8.5t-24.5 8.5t-24.5 8.5q-5 0 -13 -2l-8 46h-37zM597 292h-304l-50 287q2 1 7 1q9 0 24.5 -8.5t24.5 -8.5t24 8.5t24 8.5t24.5 -8.5t24.5 -8.5t24 8.5t24 8.5t24.5 -8.5t24.5 -8.5t24 8.5t24 8.5t24.5 -8.5t24.5 -8.5 t24 8.5t24 8.5q1 0 4.5 -0.5t4.5 -0.5zM192 151v-36h506v36h-506zM192 213v-36h506v36h-506z" />
<glyph unicode="Y" d="M45 126v548q0 52 36.5 89t89.5 37h548q53 0 89.5 -37t36.5 -89v-548q0 -52 -36.5 -89t-89.5 -37h-548q-53 0 -89.5 37t-36.5 89zM604 550l34 46q-60 36 -78 48q-20 13 -68 53l-32 -42q-7 2 -19 2q-49 0 -76 -40l-50 -73q-6 -10 -7 -14q-2 -1 -9 -1q-9 0 -24.5 8.5 t-24.5 8.5q-5 0 -13 -2l-8 46h-37l70 -402h366l70 402h-37l-7 -46q-6 2 -16 2q-6 0 -32 -13q0 9 -2 17zM638 512q1 0 4.5 -0.5t4.5 -0.5l-50 -287h-304l-50 287q2 1 7 1q9 0 24.5 -8.5t24.5 -8.5q7 0 13 3q4 -8 13 -15l-28 -40q-9 -12 -9 -26q0 -27 25 -39q0 -19 12.5 -30.5 t30.5 -11.5q5 0 8 1q14 -17 35 -17q8 0 14 3q11 -11 30 -11q21 0 36 19l109 155q2 3 5 9q7 0 22 8.5t23 8.5zM600 588l-26 -35q5 -8 5 -16q0 -17 -13 -36l-108 -155q-7 -8 -15 -8q-16 0 -16 16q0 6 3 11l47 69q-5 0 -7 5l-58 -85q-6 -8 -13 -8q-8 0 -13.5 5t-5.5 12 q0 6 4 11l59 85q-5 0 -7 4l-66 -93q-5 -8 -14 -8q-16 0 -16 16q0 5 3 11l66 94l-8 4l-55 -79q-5 -8 -13 -8q-6 0 -12 5t-6 12t3 11l91 130q0 1 -3 1q-5 0 -10 -5l-31 -45q-7 -7 -14 -7q-6 0 -11.5 4.5t-5.5 11.5t3 11l50 73q19 28 54 28q17 0 29 -6l27 36q26 -23 49 -39 q16 -11 54 -33z" />
<glyph unicode="Z" d="M45 126v548q0 52 36.5 89t89.5 37h548q53 0 89.5 -37t36.5 -89v-548q0 -52 -36.5 -89t-89.5 -37h-548q-53 0 -89.5 37t-36.5 89zM192 590l70 -402h366l70 402h-37l-7 -46q-6 2 -16 2q-9 0 -24 -8.5t-24 -8.5t-24.5 8.5t-24.5 8.5t-24 -8.5t-24 -8.5t-24.5 8.5t-24.5 8.5 t-24 -8.5t-24 -8.5t-24.5 8.5t-24.5 8.5t-24 -8.5t-24 -8.5t-24.5 8.5t-24.5 8.5q-5 0 -13 -2l-8 46h-37zM597 224h-304l-50 287q2 1 7 1q9 0 24.5 -8.5t24.5 -8.5t24 8.5t24 8.5t24.5 -8.5t24.5 -8.5t24 8.5t24 8.5t24.5 -8.5t24.5 -8.5t24 8.5t24 8.5t24.5 -8.5t24.5 -8.5 t24 8.5t24 8.5q1 0 4.5 -0.5t4.5 -0.5zM543 342q0 23 -16 30q-11 8 -30 8q-2 0 -6.5 -0.5t-5.5 -0.5v20h55v23h-85v-68q4 0 13.5 2t14.5 2q13 0 22 -5q7 -5 7 -12q0 -9 -6 -13q-6 -5 -20 -5q-20 0 -33 10l-3 -27q14 -7 40 -7q24 0 39 12q14 11 14 31zM417 358q-6 6 -17 8 q23 7 23 29q0 14 -14 22q-11 8 -34 8q-25 0 -41 -8v-26q28 10 37 10q11 0 15 -3q7 -2 7 -9q0 -9 -8 -11q-2 -2 -10 -2h-16v-21h6q7 0 21 -2q9 -2 9 -13q0 -8 -7 -13q-5 -4 -20 -4q-21 0 -34 10l-3 -27q14 -7 43 -7q25 0 38 10q14 12 14 29q0 13 -9 20z" />
<glyph unicode="[" d="M262 188l-70 402h37l8 -46q8 2 13 2q9 0 24.5 -8.5t24.5 -8.5t24 8.5t24 8.5t24.5 -8.5t24.5 -8.5t24 8.5t24 8.5t24.5 -8.5t24.5 -8.5t24 8.5t24 8.5t24.5 -8.5t24.5 -8.5t24 8.5t24 8.5q10 0 16 -2l7 46h37l-70 -402h-366zM293 224h304l50 287q-1 0 -4.5 0.5t-4.5 0.5 q-9 0 -24 -8.5t-24 -8.5t-24.5 8.5t-24.5 8.5t-24 -8.5t-24 -8.5t-24.5 8.5t-24.5 8.5t-24 -8.5t-24 -8.5t-24.5 8.5t-24.5 8.5t-24 -8.5t-24 -8.5t-24.5 8.5t-24.5 8.5q-5 0 -7 -1zM45 126v548q0 52 36.5 89t89.5 37h548q53 0 89.5 -37t36.5 -89v-548q0 -52 -36.5 -89 t-89.5 -37h-548q-53 0 -89.5 37t-36.5 89zM710 775h-530q-48 0 -79 -31t-31 -79v-530q0 -48 31 -79t79 -31h530q48 0 79 31t31 79v530q0 48 -31 79t-79 31zM549 360q0 -32 -12 -48q-13 -15 -38 -15q-26 0 -38 16q-11 15 -11 47t11 47q12 16 38 16t38 -17q12 -16 12 -46z M434 350v-22h-16v-28h-30v28h-57v22l55 70h32v-70h16zM518 360q0 41 -19 41q-18 0 -18 -42q0 -40 18 -40q19 0 19 41zM354 350h34v42z" />
<glyph unicode="\" d="M262 188l-70 402h37l8 -46q8 2 13 2q9 0 24.5 -8.5t24.5 -8.5t24 8.5t24 8.5t24.5 -8.5t24.5 -8.5t24 8.5t24 8.5t24.5 -8.5t24.5 -8.5t24 8.5t24 8.5t24.5 -8.5t24.5 -8.5t24 8.5t24 8.5q10 0 16 -2l7 46h37l-70 -402h-366zM293 224h304l50 287q-1 0 -4.5 0.5t-4.5 0.5 q-9 0 -24 -8.5t-24 -8.5t-24.5 8.5t-24.5 8.5t-24 -8.5t-24 -8.5t-24.5 8.5t-24.5 8.5t-24 -8.5t-24 -8.5t-24.5 8.5t-24.5 8.5t-24 -8.5t-24 -8.5t-24.5 8.5t-24.5 8.5q-5 0 -7 -1zM45 126v548q0 52 36.5 89t89.5 37h548q53 0 89.5 -37t36.5 -89v-548q0 -52 -36.5 -89 t-89.5 -37h-548q-53 0 -89.5 37t-36.5 89zM710 775h-530q-48 0 -79 -31t-31 -79v-530q0 -48 31 -79t79 -31h530q48 0 79 31t31 79v530q0 48 -31 79t-79 31zM547 360q0 -32 -12 -48q-13 -15 -38 -15q-26 0 -38 16q-11 15 -11 47t11 47q12 16 38 16t38 -17q12 -16 12 -46z M431 340q0 -20 -13 -31q-14 -12 -36 -12q-23 0 -34 12q-15 12 -15 44q0 34 15 50q18 20 51 20q10 0 22 -3v-23h-4q-12 4 -19 4q-29 0 -34 -30q14 9 28 9q12 0 24 -7q15 -13 15 -33zM516 360q0 41 -19 41q-18 0 -18 -42q0 -40 18 -40q19 0 19 41zM394 322q6 6 6 17q0 9 -7 16 q-5 4 -15 4q-2 0 -14 -3v-8q0 -19 7 -26q4 -4 12 -4q7 0 11 4z" />
<glyph unicode="]" d="M262 188l-70 402h37l8 -46q8 2 13 2q9 0 24.5 -8.5t24.5 -8.5t24 8.5t24 8.5t24.5 -8.5t24.5 -8.5t24 8.5t24 8.5t24.5 -8.5t24.5 -8.5t24 8.5t24 8.5t24.5 -8.5t24.5 -8.5t24 8.5t24 8.5q10 0 16 -2l7 46h37l-70 -402h-366zM293 224h304l50 287q-1 0 -4.5 0.5t-4.5 0.5 q-9 0 -24 -8.5t-24 -8.5t-24.5 8.5t-24.5 8.5t-24 -8.5t-24 -8.5t-24.5 8.5t-24.5 8.5t-24 -8.5t-24 -8.5t-24.5 8.5t-24.5 8.5t-24 -8.5t-24 -8.5t-24.5 8.5t-24.5 8.5q-5 0 -7 -1zM45 126v548q0 52 36.5 89t89.5 37h548q53 0 89.5 -37t36.5 -89v-548q0 -52 -36.5 -89 t-89.5 -37h-548q-53 0 -89.5 37t-36.5 89zM710 775h-530q-48 0 -79 -31t-31 -79v-530q0 -48 31 -79t79 -31h530q48 0 79 31t31 79v530q0 48 -31 79t-79 31zM561 362q0 -32 -12 -48q-13 -15 -38 -15q-26 0 -38 16q-11 15 -11 47t11 47q12 16 38 16t38 -17q12 -16 12 -46z M442 342q0 -20 -14 -31q-15 -12 -39 -12q-26 0 -40 7l3 27q13 -10 33 -10q14 0 20 5q6 4 6 13q0 7 -7 12q-9 5 -22 5q-5 0 -14.5 -2t-13.5 -2v68h85v-23h-55v-20q1 0 5.5 0.5t6.5 0.5q19 0 30 -8q16 -7 16 -30zM530 362q0 41 -19 41q-18 0 -18 -42q0 -40 18 -40q19 0 19 41z " />
<glyph unicode="^" d="M192 400q0 -104 74 -178.5t178 -74.5q105 0 179.5 74.5t74.5 178.5t-74.5 178.5t-179.5 74.5q-104 0 -178 -74.5t-74 -178.5zM238 400q0 -86 60.5 -147t145.5 -61q86 0 147.5 61.5t61.5 146.5t-61.5 146.5t-147.5 61.5q-85 0 -145.5 -61t-60.5 -147zM45 126v548 q0 52 36.5 89t89.5 37h548q53 0 89.5 -37t36.5 -89v-548q0 -52 -36.5 -89t-89.5 -37h-548q-53 0 -89.5 37t-36.5 89z" />
<glyph unicode="_" d="M45 126v548q0 52 36.5 89t89.5 37h548q53 0 89.5 -37t36.5 -89v-548q0 -52 -36.5 -89t-89.5 -37h-548q-53 0 -89.5 37t-36.5 89zM192 429q0 -104 74 -178.5t178 -74.5q105 0 179.5 74.5t74.5 178.5t-74.5 178.5t-179.5 74.5q-104 0 -178 -74.5t-74 -178.5zM238 429 q0 -86 60.5 -146.5t145.5 -60.5q86 0 147.5 61t61.5 146t-61.5 146.5t-147.5 61.5q-85 0 -145.5 -61t-60.5 -147zM418 300h-52v253h172v-43h-120v-59h104v-43h-104v-108zM213 145v-36h464v36h-464z" />
<glyph unicode="`" d="M45 126v548q0 52 36.5 89t89.5 37h548q53 0 89.5 -37t36.5 -89v-548q0 -52 -36.5 -89t-89.5 -37h-548q-53 0 -89.5 37t-36.5 89zM710 775h-530q-48 0 -79 -31t-31 -79v-530q0 -48 31 -79t79 -31h530q48 0 79 31t31 79v530q0 48 -31 79t-79 31z" />
<glyph unicode="a" d="M45 126v548q0 52 36.5 89t89.5 37h548q53 0 89.5 -37t36.5 -89v-548q0 -52 -36.5 -89t-89.5 -37h-548q-53 0 -89.5 37t-36.5 89zM710 775h-530q-48 0 -79 -31t-31 -79v-530q0 -48 31 -79t79 -31h530q48 0 79 31t31 79v530q0 48 -31 79t-79 31zM192 176l252 506l254 -506 h-506zM444 578l-174 -356h350z" />
<glyph unicode="b" d="M192 176l252 506l254 -506h-506zM444 578l-174 -356h350zM45 126v548q0 52 36.5 89t89.5 37h548q53 0 89.5 -37t36.5 -89v-548q0 -52 -36.5 -89t-89.5 -37h-548q-53 0 -89.5 37t-36.5 89zM710 775h-530q-48 0 -79 -31t-31 -79v-530q0 -48 31 -79t79 -31h530q48 0 79 31 t31 79v530q0 48 -31 79t-79 31zM439 303l30 -9q-11 -38 -50 -38q-58 0 -58 58q0 28 14.5 43t40.5 15q40 0 52 -35l-30 -6q-3 15 -20 15q-23 0 -23 -32t21 -32q18 0 23 21zM487 259v110h30v-110h-30z" />
<glyph unicode="c" d="M45 126v548q0 52 36.5 89t89.5 37h548q53 0 89.5 -37t36.5 -89v-548q0 -52 -36.5 -89t-89.5 -37h-548q-53 0 -89.5 37t-36.5 89zM710 775h-530q-48 0 -79 -31t-31 -79v-530q0 -48 31 -79t79 -31h530q48 0 79 31t31 79v530q0 48 -31 79t-79 31zM192 176l252 506l254 -506 h-506zM444 578l-174 -356h67l142 284zM391 222h53l89 177l-27 53zM620 222l-61 123l-61 -123h122z" />
<glyph unicode="d" d="M45 126v548q0 52 36.5 89t89.5 37h548q53 0 89.5 -37t36.5 -89v-548q0 -52 -36.5 -89t-89.5 -37h-548q-53 0 -89.5 37t-36.5 89zM710 775h-530q-48 0 -79 -31t-31 -79v-530q0 -48 31 -79t79 -31h530q48 0 79 31t31 79v530q0 48 -31 79t-79 31zM311 222h266l46 -46h-358z M444 578l-44 -91l-35 35l79 160l80 -160l-36 -36zM517 428l36 36l132 -262l-109 110zM205 202l131 261l35 -35l-58 -118zM213 143l-25 24l231 231l-223 224l25 24l223 -223l223 223l24 -25l-223 -223l230 -230l-24 -25l-230 230z" />
<glyph unicode="e" d="M45 126v548q0 52 36.5 89t89.5 37h548q53 0 89.5 -37t36.5 -89v-548q0 -52 -36.5 -89t-89.5 -37h-548q-53 0 -89.5 37t-36.5 89zM710 775h-530q-48 0 -79 -31t-31 -79v-530q0 -48 31 -79t79 -31h530q48 0 79 31t31 79v530q0 48 -31 79t-79 31zM192 147v506h506v-506h-506 zM233 613v-426h425v426h-425z" />
<glyph unicode="f" d="M45 126v548q0 52 36.5 89t89.5 37h548q53 0 89.5 -37t36.5 -89v-548q0 -52 -36.5 -89t-89.5 -37h-548q-53 0 -89.5 37t-36.5 89zM698 188v424l-40 -40v-345zM233 232v333l-41 42v-416zM231 653l40 -40h343l40 40h-423zM232 147h421l-40 40h-341zM171 151l25 -24l248 248 l248 -248l24 25l-248 248l247 248l-24 25l-247 -248l-249 248l-25 -24l249 -249zM710 775h-530q-48 0 -79 -31t-31 -79v-530q0 -48 31 -79t79 -31h530q48 0 79 31t31 79v530q0 48 -31 79t-79 31z" />
<glyph unicode="g" d="M45 126v548q0 52 36.5 89t89.5 37h548q53 0 89.5 -37t36.5 -89v-548q0 -52 -36.5 -89t-89.5 -37h-548q-53 0 -89.5 37t-36.5 89zM710 775h-530q-48 0 -79 -31t-31 -79v-530q0 -48 31 -79t79 -31h530q48 0 79 31t31 79v530q0 48 -31 79t-79 31zM192 147v506h506v-506h-506 zM270 400q0 -72 51 -124t123 -52q73 0 125 52t52 124t-52 124t-125 52q-72 0 -123 -52t-51 -124zM466 187h192v191q-8 -76 -62 -130t-130 -61zM658 613h-192q76 -8 130.5 -62t61.5 -130v192zM422 187q-73 7 -126 59t-63 125v-184h189zM233 613v-184q10 73 63 125t126 59 h-189z" />
<glyph unicode="h" d="M45 126v548q0 52 36.5 89t89.5 37h548q53 0 89.5 -37t36.5 -89v-548q0 -52 -36.5 -89t-89.5 -37h-548q-53 0 -89.5 37t-36.5 89zM710 775h-530q-48 0 -79 -31t-31 -79v-530q0 -48 31 -79t79 -31h530q48 0 79 31t31 79v530q0 48 -31 79t-79 31zM302 299l-28 -29 q-34 44 -41 101v-142l-41 -41v420l41 -41v-138q8 55 40 98l28 -27q-31 -46 -31 -100q0 -55 32 -101zM698 615v-427l-40 40v150q-8 -60 -43 -108l-27 28q33 46 33 102q0 57 -35 103l27 27q39 -51 45 -109v154zM422 187q-59 6 -108 43l28 28q47 -34 102 -34q54 0 100 32 l28 -28q-45 -35 -106 -41h147l40 -40h-423l41 40h151zM616 613h-150q61 -8 107 -43l-27 -27q-46 33 -102 33q-57 0 -101 -33l-27 27q49 37 106 43h-149l-40 40h423zM196 127l-25 24l248 249l-249 249l25 24l249 -248l247 248l24 -25l-247 -248l248 -248l-24 -25l-248 248z " />
<glyph unicode="i" d="M192 147v506h506v-506h-506zM270 400q0 -72 51 -124t123 -52q73 0 125 52t52 124t-52 124t-125 52q-72 0 -123 -52t-51 -124zM466 187h192v191q-8 -76 -62 -130t-130 -61zM658 613h-192q76 -8 130.5 -62t61.5 -130v192zM422 187q-73 7 -126 59t-63 125v-184h189zM233 613 v-184q10 73 63 125t126 59h-189zM45 126v548q0 52 36.5 89t89.5 37h548q53 0 89.5 -37t36.5 -89v-548q0 -52 -36.5 -89t-89.5 -37h-548q-53 0 -89.5 37t-36.5 89zM710 775h-530q-48 0 -79 -31t-31 -79v-530q0 -48 31 -79t79 -31h530q48 0 79 31t31 79v530q0 48 -31 79 t-79 31zM408 400q0 15 10.5 25.5t25.5 10.5t25.5 -10.5t10.5 -25.5t-10.5 -25.5t-25.5 -10.5t-25.5 10.5t-10.5 25.5z" />
<glyph unicode="j" d="M192 147v506h506v-506h-506zM270 400q0 -72 51 -124t123 -52q73 0 125 52t52 124t-52 124t-125 52q-72 0 -123 -52t-51 -124zM466 187h192v191q-8 -76 -62 -130t-130 -61zM658 613h-192q76 -8 130.5 -62t61.5 -130v192zM422 187q-73 7 -126 59t-63 125v-184h189zM233 613 v-184q10 73 63 125t126 59h-189zM45 126v548q0 52 36.5 89t89.5 37h548q53 0 89.5 -37t36.5 -89v-548q0 -52 -36.5 -89t-89.5 -37h-548q-53 0 -89.5 37t-36.5 89zM710 775h-530q-48 0 -79 -31t-31 -79v-530q0 -48 31 -79t79 -31h530q48 0 79 31t31 79v530q0 48 -31 79 t-79 31zM456 400q0 15 10.5 25.5t25.5 10.5t25.5 -10.5t10.5 -25.5t-10.5 -25.5t-25.5 -10.5t-25.5 10.5t-10.5 25.5zM360 400q0 15 10.5 25.5t25.5 10.5t25.5 -10.5t10.5 -25.5t-10.5 -25.5t-25.5 -10.5t-25.5 10.5t-10.5 25.5z" />
<glyph unicode="k" d="M408 400q0 15 10.5 25.5t25.5 10.5t25.5 -10.5t10.5 -25.5t-10.5 -25.5t-25.5 -10.5t-25.5 10.5t-10.5 25.5zM192 147v506h506v-506h-506zM270 400q0 -72 51 -124t123 -52q73 0 125 52t52 124t-52 124t-125 52q-72 0 -123 -52t-51 -124zM466 187h192v191q-8 -76 -62 -130 t-130 -61zM658 613h-192q76 -8 130.5 -62t61.5 -130v192zM422 187q-73 7 -126 59t-63 125v-184h189zM233 613v-184q10 73 63 125t126 59h-189zM45 126v548q0 52 36.5 89t89.5 37h548q53 0 89.5 -37t36.5 -89v-548q0 -52 -36.5 -89t-89.5 -37h-548q-53 0 -89.5 37t-36.5 89z M710 775h-530q-48 0 -79 -31t-31 -79v-530q0 -48 31 -79t79 -31h530q48 0 79 31t31 79v530q0 48 -31 79t-79 31zM504 400q0 15 10.5 25.5t25.5 10.5t25.5 -10.5t10.5 -25.5t-10.5 -25.5t-25.5 -10.5t-25.5 10.5t-10.5 25.5zM312 400q0 15 10.5 25.5t25.5 10.5t25.5 -10.5 t10.5 -25.5t-10.5 -25.5t-25.5 -10.5t-25.5 10.5t-10.5 25.5z" />
<glyph unicode="l" d="M45 126v548q0 52 36.5 89t89.5 37h548q53 0 89.5 -37t36.5 -89v-548q0 -52 -36.5 -89t-89.5 -37h-548q-53 0 -89.5 37t-36.5 89zM710 775h-530q-48 0 -79 -31t-31 -79v-530q0 -48 31 -79t79 -31h530q48 0 79 31t31 79v530q0 48 -31 79t-79 31zM192 176v506h506v-506h-506 zM270 429q0 -72 51 -124t123 -52q73 0 125 52t52 124t-52 124t-125 52q-72 0 -123 -52t-51 -124zM466 216h192v191q-8 -76 -62 -130t-130 -61zM658 642h-192q76 -8 130.5 -62t61.5 -130v192zM422 216q-73 7 -126 59t-63 125v-184h189zM233 642v-184q10 73 63 125t126 59 h-189zM192 109v36h506v-36h-506z" />
<glyph unicode="m" d="M45 126v548q0 52 36.5 89t89.5 37h548q53 0 89.5 -37t36.5 -89v-548q0 -52 -36.5 -89t-89.5 -37h-548q-53 0 -89.5 37t-36.5 89zM710 775h-530q-48 0 -79 -31t-31 -79v-530q0 -48 31 -79t79 -31h530q48 0 79 31t31 79v530q0 48 -31 79t-79 31zM192 83v36h506v-36h-506z M192 212v506h506v-506h-506zM270 465q0 -72 51 -124t123 -52q73 0 125 52t52 124t-52 124t-125 52q-72 0 -123 -52t-51 -124zM466 252h192v191q-8 -76 -62 -130t-130 -61zM658 678h-192q76 -8 130.5 -62t61.5 -130v192zM422 252q-73 7 -126 59t-63 125v-184h189zM233 678 v-184q10 73 63 125t126 59h-189zM192 145v36h506v-36h-506z" />
<glyph unicode="n" d="M45 126v548q0 52 36.5 89t89.5 37h548q53 0 89.5 -37t36.5 -89v-548q0 -52 -36.5 -89t-89.5 -37h-548q-53 0 -89.5 37t-36.5 89zM710 775h-530q-48 0 -79 -31t-31 -79v-530q0 -48 31 -79t79 -31h530q48 0 79 31t31 79v530q0 48 -31 79t-79 31zM192 147v506h506v-506h-506 zM233 187h425v346q-35 -36 -92.5 -55.5t-121.5 -19.5q-141 0 -211 73v-344zM444 495q77 0 145.5 35t68.5 83h-425q0 -48 66.5 -83t144.5 -35z" />
<glyph unicode="o" d="M192 147v506h506v-506h-506zM233 613v-426h425v426h-425zM45 126v548q0 52 36.5 89t89.5 37h548q53 0 89.5 -37t36.5 -89v-548q0 -52 -36.5 -89t-89.5 -37h-548q-53 0 -89.5 37t-36.5 89zM710 775h-530q-48 0 -79 -31t-31 -79v-530q0 -48 31 -79t79 -31h530q48 0 79 31 t31 79v530q0 48 -31 79t-79 31zM299 382v36h293v-36h-293z" />
<glyph unicode="p" d="M45 126v548q0 52 36.5 89t89.5 37h548q53 0 89.5 -37t36.5 -89v-548q0 -52 -36.5 -89t-89.5 -37h-548q-53 0 -89.5 37t-36.5 89zM710 775h-530q-48 0 -79 -31t-31 -79v-530q0 -48 31 -79t79 -31h530q48 0 79 31t31 79v530q0 48 -31 79t-79 31zM192 147v506h506v-506h-506 zM538 613l-305 -305v-121h425v426h-120zM423 613l-190 -190v-59l249 249h-59zM233 613v-133l133 133h-133z" />
<glyph unicode="q" d="M192 147v506h506v-506h-506zM233 613v-426h425v426h-425zM45 126v548q0 52 36.5 89t89.5 37h548q53 0 89.5 -37t36.5 -89v-548q0 -52 -36.5 -89t-89.5 -37h-548q-53 0 -89.5 37t-36.5 89zM710 775h-530q-48 0 -79 -31t-31 -79v-530q0 -48 31 -79t79 -31h530q48 0 79 31 t31 79v530q0 48 -31 79t-79 31zM378 253h-36v294h36v-294zM546 253h-36v294h36v-294zM462 253h-36v294h36v-294z" />
<glyph unicode="r" d="M45 126v548q0 52 36.5 89t89.5 37h548q53 0 89.5 -37t36.5 -89v-548q0 -52 -36.5 -89t-89.5 -37h-548q-53 0 -89.5 37t-36.5 89zM710 775h-530q-48 0 -79 -31t-31 -79v-530q0 -48 31 -79t79 -31h530q48 0 79 31t31 79v530q0 48 -31 79t-79 31zM378 423l-58 -105l-29 -29 q-25 -17 -62 -17h-37v216h121zM514 287l-21 21q-15 -9 -40 -9h-66l-32 -30h98q10 0 25.5 4.5t25.5 8.5zM463 461l30 30h-72q-10 0 -22 -4l27 -26h37zM574 486l-26 -25q26 -2 26 -24l-44 -80l22 -21l53 94q16 28 39 28h26v-156h-85l30 -30h83v216h-54q-30 0 -47 -17 q-3 3 -8.5 7t-10 6.5t-4.5 1.5zM220 458v-156h9q46 0 64 31l56 100q1 2 1 7q0 18 -29 18h-101zM188 169l25 -24l231 230l230 -230l24 25l-230 230l230 230l-24 25l-230 -230l-231 230l-25 -24l231 -231z" />
<glyph unicode="s" d="M45 126v548q0 52 36.5 89t89.5 37h548q53 0 89.5 -37t36.5 -89v-548q0 -52 -36.5 -89t-89.5 -37h-548q-53 0 -89.5 37t-36.5 89zM710 775h-530q-48 0 -79 -31t-31 -79v-530q0 -48 31 -79t79 -31h530q48 0 79 31t31 79v530q0 48 -31 79t-79 31zM262 188l-70 402h37l8 -46 q8 2 13 2q9 0 24.5 -8.5t24.5 -8.5t24 8.5t24 8.5t24.5 -8.5t24.5 -8.5t24 8.5t24 8.5t24.5 -8.5t24.5 -8.5t24 8.5t24 8.5t24.5 -8.5t24.5 -8.5t24 8.5t24 8.5q10 0 16 -2l7 46h37l-70 -402h-366zM293 224h304l50 287q-1 0 -4.5 0.5t-4.5 0.5q-9 0 -24 -8.5t-24 -8.5 t-24.5 8.5t-24.5 8.5t-24 -8.5t-24 -8.5t-24.5 8.5t-24.5 8.5t-24 -8.5t-24 -8.5t-24.5 8.5t-24.5 8.5t-24 -8.5t-24 -8.5t-24.5 8.5t-24.5 8.5q-5 0 -7 -1z" />
<glyph unicode="t" d="M262 188l-70 402h37l8 -46q8 2 13 2q9 0 24.5 -8.5t24.5 -8.5t24 8.5t24 8.5t24.5 -8.5t24.5 -8.5t24 8.5t24 8.5t24.5 -8.5t24.5 -8.5t24 8.5t24 8.5t24.5 -8.5t24.5 -8.5t24 8.5t24 8.5q10 0 16 -2l7 46h37l-70 -402h-366zM293 224h304l50 287q-1 0 -4.5 0.5t-4.5 0.5 q-9 0 -24 -8.5t-24 -8.5t-24.5 8.5t-24.5 8.5t-24 -8.5t-24 -8.5t-24.5 8.5t-24.5 8.5t-24 -8.5t-24 -8.5t-24.5 8.5t-24.5 8.5t-24 -8.5t-24 -8.5t-24.5 8.5t-24.5 8.5q-5 0 -7 -1zM45 126v548q0 52 36.5 89t89.5 37h548q53 0 89.5 -37t36.5 -89v-548q0 -52 -36.5 -89 t-89.5 -37h-548q-53 0 -89.5 37t-36.5 89zM710 775h-530q-48 0 -79 -31t-31 -79v-530q0 -48 31 -79t79 -31h530q48 0 79 31t31 79v530q0 48 -31 79t-79 31zM408 374q0 15 10.5 25.5t25.5 10.5t25.5 -10.5t10.5 -25.5t-10.5 -25.5t-25.5 -10.5t-25.5 10.5t-10.5 25.5z" />
<glyph unicode="u" d="M262 188l-70 402h37l8 -46q8 2 13 2q9 0 24.5 -8.5t24.5 -8.5t24 8.5t24 8.5t24.5 -8.5t24.5 -8.5t24 8.5t24 8.5t24.5 -8.5t24.5 -8.5t24 8.5t24 8.5t24.5 -8.5t24.5 -8.5t24 8.5t24 8.5q10 0 16 -2l7 46h37l-70 -402h-366zM293 224h304l50 287q-1 0 -4.5 0.5t-4.5 0.5 q-9 0 -24 -8.5t-24 -8.5t-24.5 8.5t-24.5 8.5t-24 -8.5t-24 -8.5t-24.5 8.5t-24.5 8.5t-24 -8.5t-24 -8.5t-24.5 8.5t-24.5 8.5t-24 -8.5t-24 -8.5t-24.5 8.5t-24.5 8.5q-5 0 -7 -1zM45 126v548q0 52 36.5 89t89.5 37h548q53 0 89.5 -37t36.5 -89v-548q0 -52 -36.5 -89 t-89.5 -37h-548q-53 0 -89.5 37t-36.5 89zM710 775h-530q-48 0 -79 -31t-31 -79v-530q0 -48 31 -79t79 -31h530q48 0 79 31t31 79v530q0 48 -31 79t-79 31zM456 374q0 15 10.5 25.5t25.5 10.5t25.5 -10.5t10.5 -25.5t-10.5 -25.5t-25.5 -10.5t-25.5 10.5t-10.5 25.5z M360 374q0 15 10.5 25.5t25.5 10.5t25.5 -10.5t10.5 -25.5t-10.5 -25.5t-25.5 -10.5t-25.5 10.5t-10.5 25.5z" />
<glyph unicode="v" d="M408 374q0 15 10.5 25.5t25.5 10.5t25.5 -10.5t10.5 -25.5t-10.5 -25.5t-25.5 -10.5t-25.5 10.5t-10.5 25.5zM262 188l-70 402h37l8 -46q8 2 13 2q9 0 24.5 -8.5t24.5 -8.5t24 8.5t24 8.5t24.5 -8.5t24.5 -8.5t24 8.5t24 8.5t24.5 -8.5t24.5 -8.5t24 8.5t24 8.5 t24.5 -8.5t24.5 -8.5t24 8.5t24 8.5q10 0 16 -2l7 46h37l-70 -402h-366zM293 224h304l50 287q-1 0 -4.5 0.5t-4.5 0.5q-9 0 -24 -8.5t-24 -8.5t-24.5 8.5t-24.5 8.5t-24 -8.5t-24 -8.5t-24.5 8.5t-24.5 8.5t-24 -8.5t-24 -8.5t-24.5 8.5t-24.5 8.5t-24 -8.5t-24 -8.5 t-24.5 8.5t-24.5 8.5q-5 0 -7 -1zM45 126v548q0 52 36.5 89t89.5 37h548q53 0 89.5 -37t36.5 -89v-548q0 -52 -36.5 -89t-89.5 -37h-548q-53 0 -89.5 37t-36.5 89zM710 775h-530q-48 0 -79 -31t-31 -79v-530q0 -48 31 -79t79 -31h530q48 0 79 31t31 79v530q0 48 -31 79 t-79 31zM504 374q0 15 10.5 25.5t25.5 10.5t25.5 -10.5t10.5 -25.5t-10.5 -25.5t-25.5 -10.5t-25.5 10.5t-10.5 25.5zM312 374q0 15 10.5 25.5t25.5 10.5t25.5 -10.5t10.5 -25.5t-10.5 -25.5t-25.5 -10.5t-25.5 10.5t-10.5 25.5z" />
<glyph unicode="w" d="M45 126v548q0 52 36.5 89t89.5 37h548q53 0 89.5 -37t36.5 -89v-548q0 -52 -36.5 -89t-89.5 -37h-548q-53 0 -89.5 37t-36.5 89zM710 775h-530q-48 0 -79 -31t-31 -79v-530q0 -48 31 -79t79 -31h530q48 0 79 31t31 79v530q0 48 -31 79t-79 31zM262 216l-70 402h37l8 -46 q8 2 13 2q9 0 24.5 -8.5t24.5 -8.5t24 8.5t24 8.5t24.5 -8.5t24.5 -8.5t24 8.5t24 8.5t24.5 -8.5t24.5 -8.5t24 8.5t24 8.5t24.5 -8.5t24.5 -8.5t24 8.5t24 8.5q10 0 16 -2l7 46h37l-70 -402h-366zM293 252h304l50 287q-1 0 -4.5 0.5t-4.5 0.5q-9 0 -24 -8.5t-24 -8.5 t-24.5 8.5t-24.5 8.5t-24 -8.5t-24 -8.5t-24.5 8.5t-24.5 8.5t-24 -8.5t-24 -8.5t-24.5 8.5t-24.5 8.5t-24 -8.5t-24 -8.5t-24.5 8.5t-24.5 8.5q-5 0 -7 -1zM192 137v36h506v-36h-506z" />
<glyph unicode="x" d="M45 126v548q0 52 36.5 89t89.5 37h548q53 0 89.5 -37t36.5 -89v-548q0 -52 -36.5 -89t-89.5 -37h-548q-53 0 -89.5 37t-36.5 89zM710 775h-530q-48 0 -79 -31t-31 -79v-530q0 -48 31 -79t79 -31h530q48 0 79 31t31 79v530q0 48 -31 79t-79 31zM262 256l-70 402h37l8 -46 q8 2 13 2q9 0 24.5 -8.5t24.5 -8.5t24 8.5t24 8.5t24.5 -8.5t24.5 -8.5t24 8.5t24 8.5t24.5 -8.5t24.5 -8.5t24 8.5t24 8.5t24.5 -8.5t24.5 -8.5t24 8.5t24 8.5q10 0 16 -2l7 46h37l-70 -402h-366zM293 292h304l50 287q-1 0 -4.5 0.5t-4.5 0.5q-9 0 -24 -8.5t-24 -8.5 t-24.5 8.5t-24.5 8.5t-24 -8.5t-24 -8.5t-24.5 8.5t-24.5 8.5t-24 -8.5t-24 -8.5t-24.5 8.5t-24.5 8.5t-24 -8.5t-24 -8.5t-24.5 8.5t-24.5 8.5q-5 0 -7 -1zM192 115v36h506v-36h-506zM192 177v36h506v-36h-506z" />
<glyph unicode="y" d="M45 126v548q0 52 36.5 89t89.5 37h548q53 0 89.5 -37t36.5 -89v-548q0 -52 -36.5 -89t-89.5 -37h-548q-53 0 -89.5 37t-36.5 89zM710 775h-530q-48 0 -79 -31t-31 -79v-530q0 -48 31 -79t79 -31h530q48 0 79 31t31 79v530q0 48 -31 79t-79 31zM638 596l-34 -46 q2 -8 2 -17q26 13 32 13q10 0 16 -2l7 46h37l-70 -402h-366l-70 402h37l8 -46q8 2 13 2q9 0 24.5 -8.5t24.5 -8.5q7 0 9 1q1 4 7 14l50 73q27 40 76 40q12 0 19 -2l32 42q48 -40 68 -53q18 -12 78 -48zM638 512q-8 0 -23 -8.5t-22 -8.5q-3 -6 -5 -9l-109 -155 q-15 -19 -36 -19q-19 0 -30 11q-6 -3 -14 -3q-21 0 -35 17q-3 -1 -8 -1q-18 0 -30.5 11.5t-12.5 30.5q-25 12 -25 39q0 14 9 26l28 40q-9 7 -13 15q-6 -3 -13 -3q-9 0 -24.5 8.5t-24.5 8.5q-5 0 -7 -1l50 -287h304l50 287q-1 0 -4.5 0.5t-4.5 0.5zM574 553l26 35 q-38 22 -54 33q-23 16 -49 39l-27 -36q-12 6 -29 6q-35 0 -54 -28l-50 -73q-3 -4 -3 -11t5.5 -11.5t11.5 -4.5q7 0 14 7l31 45q5 5 10 5q3 0 3 -1l-91 -130q-3 -4 -3 -11t6 -12t12 -5q8 0 13 8l55 79l8 -4l-66 -94q-3 -6 -3 -11q0 -16 16 -16q9 0 14 8l66 93q2 -4 7 -4 l-59 -85q-4 -5 -4 -11q0 -7 5.5 -12t13.5 -5q7 0 13 8l58 85q2 -5 7 -5l-47 -69q-3 -5 -3 -11q0 -16 16 -16q8 0 15 8l108 155q13 19 13 36q0 8 -5 16z" />
<glyph unicode="z" d="M262 188l-70 402h37l8 -46q8 2 13 2q9 0 24.5 -8.5t24.5 -8.5t24 8.5t24 8.5t24.5 -8.5t24.5 -8.5t24 8.5t24 8.5t24.5 -8.5t24.5 -8.5t24 8.5t24 8.5t24.5 -8.5t24.5 -8.5t24 8.5t24 8.5q10 0 16 -2l7 46h37l-70 -402h-366zM293 224h304l50 287q-1 0 -4.5 0.5t-4.5 0.5 q-9 0 -24 -8.5t-24 -8.5t-24.5 8.5t-24.5 8.5t-24 -8.5t-24 -8.5t-24.5 8.5t-24.5 8.5t-24 -8.5t-24 -8.5t-24.5 8.5t-24.5 8.5t-24 -8.5t-24 -8.5t-24.5 8.5t-24.5 8.5q-5 0 -7 -1zM45 126v548q0 52 36.5 89t89.5 37h548q53 0 89.5 -37t36.5 -89v-548q0 -52 -36.5 -89 t-89.5 -37h-548q-53 0 -89.5 37t-36.5 89zM710 775h-530q-48 0 -79 -31t-31 -79v-530q0 -48 31 -79t79 -31h530q48 0 79 31t31 79v530q0 48 -31 79t-79 31zM543 342q0 -20 -14 -31q-15 -12 -39 -12q-26 0 -40 7l3 27q13 -10 33 -10q14 0 20 5q6 4 6 13q0 7 -7 12q-9 5 -22 5 q-5 0 -14.5 -2t-13.5 -2v68h85v-23h-55v-20q1 0 5.5 0.5t6.5 0.5q19 0 30 -8q16 -7 16 -30zM417 358q9 -7 9 -20q0 -17 -14 -29q-13 -10 -38 -10q-29 0 -43 7l3 27q13 -10 34 -10q15 0 20 4q7 5 7 13q0 11 -9 13q-14 2 -21 2h-6v21h16q8 0 10 2q8 2 8 11q0 7 -7 9 q-4 3 -15 3q-9 0 -37 -10v26q16 8 41 8q23 0 34 -8q14 -8 14 -22q0 -22 -23 -29q11 -2 17 -8z" />
<glyph unicode="{" d="M192 590l70 -402h366l70 402h-37l-7 -46q-6 2 -16 2q-9 0 -24 -8.5t-24 -8.5t-24.5 8.5t-24.5 8.5t-24 -8.5t-24 -8.5t-24.5 8.5t-24.5 8.5t-24 -8.5t-24 -8.5t-24.5 8.5t-24.5 8.5t-24 -8.5t-24 -8.5t-24.5 8.5t-24.5 8.5q-5 0 -13 -2l-8 46h-37zM597 224h-304l-50 287 q2 1 7 1q9 0 24.5 -8.5t24.5 -8.5t24 8.5t24 8.5t24.5 -8.5t24.5 -8.5t24 8.5t24 8.5t24.5 -8.5t24.5 -8.5t24 8.5t24 8.5t24.5 -8.5t24.5 -8.5t24 8.5t24 8.5q1 0 4.5 -0.5t4.5 -0.5zM45 126v548q0 52 36.5 89t89.5 37h548q53 0 89.5 -37t36.5 -89v-548q0 -52 -36.5 -89 t-89.5 -37h-548q-53 0 -89.5 37t-36.5 89zM549 360q0 30 -12 46q-12 17 -38 17t-38 -16q-11 -15 -11 -47t11 -47q12 -16 38 -16q25 0 38 15q12 16 12 48zM434 328v22h-16v70h-32l-55 -70v-22h57v-28h30v28h16zM518 360q0 -41 -19 -41q-18 0 -18 40q0 42 18 42q19 0 19 -41z M388 350h-34l34 42v-42z" />
<glyph unicode="|" d="M45 126v548q0 52 36.5 89t89.5 37h548q53 0 89.5 -37t36.5 -89v-548q0 -52 -36.5 -89t-89.5 -37h-548q-53 0 -89.5 37t-36.5 89z" />
<glyph unicode="}" d="M192 590l70 -402h366l70 402h-37l-7 -46q-6 2 -16 2q-9 0 -24 -8.5t-24 -8.5t-24.5 8.5t-24.5 8.5t-24 -8.5t-24 -8.5t-24.5 8.5t-24.5 8.5t-24 -8.5t-24 -8.5t-24.5 8.5t-24.5 8.5t-24 -8.5t-24 -8.5t-24.5 8.5t-24.5 8.5q-5 0 -13 -2l-8 46h-37zM597 224h-304l-50 287 q2 1 7 1q9 0 24.5 -8.5t24.5 -8.5t24 8.5t24 8.5t24.5 -8.5t24.5 -8.5t24 8.5t24 8.5t24.5 -8.5t24.5 -8.5t24 8.5t24 8.5t24.5 -8.5t24.5 -8.5t24 8.5t24 8.5q1 0 4.5 -0.5t4.5 -0.5zM45 126v548q0 52 36.5 89t89.5 37h548q53 0 89.5 -37t36.5 -89v-548q0 -52 -36.5 -89 t-89.5 -37h-548q-53 0 -89.5 37t-36.5 89zM561 362q0 30 -12 46q-12 17 -38 17t-38 -16q-11 -15 -11 -47t11 -47q12 -16 38 -16q25 0 38 15q12 16 12 48zM442 342q0 23 -16 30q-11 8 -30 8q-2 0 -6.5 -0.5t-5.5 -0.5v20h55v23h-85v-68q4 0 13.5 2t14.5 2q13 0 22 -5 q7 -5 7 -12q0 -9 -6 -13q-6 -5 -20 -5q-20 0 -33 10l-3 -27q14 -7 40 -7q24 0 39 12q14 11 14 31zM530 362q0 -41 -19 -41q-18 0 -18 40q0 42 18 42q19 0 19 -41z" />
<glyph unicode="~" d="M45 126v548q0 52 36.5 89t89.5 37h548q53 0 89.5 -37t36.5 -89v-548q0 -52 -36.5 -89t-89.5 -37h-548q-53 0 -89.5 37t-36.5 89z" />
<glyph unicode="&#xa0;" />
<glyph unicode="&#xad;" d="M45 126v548q0 52 36.5 89t89.5 37h548q53 0 89.5 -37t36.5 -89v-548q0 -52 -36.5 -89t-89.5 -37h-548q-53 0 -89.5 37t-36.5 89zM710 775h-530q-48 0 -79 -31t-31 -79v-530q0 -48 31 -79t79 -31h530q48 0 79 31t31 79v530q0 48 -31 79t-79 31zM192 429q0 104 74 178.5 t178 74.5q105 0 179.5 -74.5t74.5 -178.5t-74.5 -178.5t-179.5 -74.5q-104 0 -178 74.5t-74 178.5zM238 429q0 -86 60.5 -146.5t145.5 -60.5q86 0 147.5 61t61.5 146t-61.5 146.5t-147.5 61.5q-85 0 -145.5 -61t-60.5 -147zM418 300h-52v253h172v-43h-120v-59h104v-43h-104 v-108zM213 109v36h464v-36h-464z" />
<glyph unicode="&#x2000;" horiz-adv-x="400" />
<glyph unicode="&#x2001;" horiz-adv-x="800" />
<glyph unicode="&#x2002;" horiz-adv-x="400" />
<glyph unicode="&#x2003;" horiz-adv-x="800" />
<glyph unicode="&#x2004;" horiz-adv-x="266" />
<glyph unicode="&#x2005;" horiz-adv-x="200" />
<glyph unicode="&#x2006;" horiz-adv-x="133" />
<glyph unicode="&#x2007;" horiz-adv-x="133" />
<glyph unicode="&#x2008;" horiz-adv-x="100" />
<glyph unicode="&#x2009;" horiz-adv-x="160" />
<glyph unicode="&#x200a;" horiz-adv-x="44" />
<glyph unicode="&#x2010;" d="M45 126v548q0 52 36.5 89t89.5 37h548q53 0 89.5 -37t36.5 -89v-548q0 -52 -36.5 -89t-89.5 -37h-548q-53 0 -89.5 37t-36.5 89zM710 775h-530q-48 0 -79 -31t-31 -79v-530q0 -48 31 -79t79 -31h530q48 0 79 31t31 79v530q0 48 -31 79t-79 31zM192 429q0 104 74 178.5 t178 74.5q105 0 179.5 -74.5t74.5 -178.5t-74.5 -178.5t-179.5 -74.5q-104 0 -178 74.5t-74 178.5zM238 429q0 -86 60.5 -146.5t145.5 -60.5q86 0 147.5 61t61.5 146t-61.5 146.5t-147.5 61.5q-85 0 -145.5 -61t-60.5 -147zM418 300h-52v253h172v-43h-120v-59h104v-43h-104 v-108zM213 109v36h464v-36h-464z" />
<glyph unicode="&#x2011;" d="M45 126v548q0 52 36.5 89t89.5 37h548q53 0 89.5 -37t36.5 -89v-548q0 -52 -36.5 -89t-89.5 -37h-548q-53 0 -89.5 37t-36.5 89zM710 775h-530q-48 0 -79 -31t-31 -79v-530q0 -48 31 -79t79 -31h530q48 0 79 31t31 79v530q0 48 -31 79t-79 31zM192 429q0 104 74 178.5 t178 74.5q105 0 179.5 -74.5t74.5 -178.5t-74.5 -178.5t-179.5 -74.5q-104 0 -178 74.5t-74 178.5zM238 429q0 -86 60.5 -146.5t145.5 -60.5q86 0 147.5 61t61.5 146t-61.5 146.5t-147.5 61.5q-85 0 -145.5 -61t-60.5 -147zM418 300h-52v253h172v-43h-120v-59h104v-43h-104 v-108zM213 109v36h464v-36h-464z" />
<glyph unicode="&#x2013;" horiz-adv-x="500" d="M45 0v800h410v-800h-410z" />
<glyph unicode="&#x2014;" horiz-adv-x="1000" d="M45 0v800h910v-800h-910z" />
<glyph unicode="&#x2018;" d="M45 126v548q0 52 36.5 89t89.5 37h548q53 0 89.5 -37t36.5 -89v-548q0 -52 -36.5 -89t-89.5 -37h-548q-53 0 -89.5 37t-36.5 89zM710 775h-530q-48 0 -79 -31t-31 -79v-530q0 -48 31 -79t79 -31h530q48 0 79 31t31 79v530q0 48 -31 79t-79 31z" />
<glyph unicode="&#x2019;" d="M262 188l-70 402h37l8 -46q8 2 13 2q9 0 24.5 -8.5t24.5 -8.5t24 8.5t24 8.5t24.5 -8.5t24.5 -8.5t24 8.5t24 8.5t24.5 -8.5t24.5 -8.5t24 8.5t24 8.5t24.5 -8.5t24.5 -8.5t24 8.5t24 8.5q10 0 16 -2l7 46h37l-70 -402h-366zM293 224h304l50 287q-1 0 -4.5 0.5t-4.5 0.5 q-9 0 -24 -8.5t-24 -8.5t-24.5 8.5t-24.5 8.5t-24 -8.5t-24 -8.5t-24.5 8.5t-24.5 8.5t-24 -8.5t-24 -8.5t-24.5 8.5t-24.5 8.5t-24 -8.5t-24 -8.5t-24.5 8.5t-24.5 8.5q-5 0 -7 -1zM45 126v548q0 52 36.5 89t89.5 37h548q53 0 89.5 -37t36.5 -89v-548q0 -52 -36.5 -89 t-89.5 -37h-548q-53 0 -89.5 37t-36.5 89zM710 775h-530q-48 0 -79 -31t-31 -79v-530q0 -48 31 -79t79 -31h530q48 0 79 31t31 79v530q0 48 -31 79t-79 31zM436 335q0 -16 -14 -26t-37 -10q-26 0 -39 10q-11 10 -11 25q0 18 23 29q-20 7 -20 29q0 14 13 23.5t34 9.5 q22 0 35 -8.5t13 -22.5q0 -17 -22 -27q25 -11 25 -32zM550 342q0 -20 -14 -31q-15 -12 -39 -12q-26 0 -40 7l3 27q13 -10 33 -10q14 0 20 5q6 4 6 13q0 7 -7 12q-9 5 -22 5q-5 0 -14.5 -2t-13.5 -2v68h85v-23h-55v-20q1 0 5.5 0.5t6.5 0.5q19 0 30 -8q16 -7 16 -30zM405 334 q0 9 -15 15q-4 3 -16 6q-9 -7 -9 -17q0 -18 21 -18q9 0 12 3q7 2 7 11zM403 390q0 14 -18 14q-2 0 -11 -3q-5 -5 -5 -9q0 -8 11 -12l16 -6q7 9 7 16z" />
<glyph unicode="&#x201c;" d="M192 590l70 -402h366l70 402h-37l-7 -46q-6 2 -16 2q-9 0 -24 -8.5t-24 -8.5t-24.5 8.5t-24.5 8.5t-24 -8.5t-24 -8.5t-24.5 8.5t-24.5 8.5t-24 -8.5t-24 -8.5t-24.5 8.5t-24.5 8.5t-24 -8.5t-24 -8.5t-24.5 8.5t-24.5 8.5q-5 0 -13 -2l-8 46h-37zM597 224h-304l-50 287 q2 1 7 1q9 0 24.5 -8.5t24.5 -8.5t24 8.5t24 8.5t24.5 -8.5t24.5 -8.5t24 8.5t24 8.5t24.5 -8.5t24.5 -8.5t24 8.5t24 8.5t24.5 -8.5t24.5 -8.5t24 8.5t24 8.5q1 0 4.5 -0.5t4.5 -0.5zM45 126v548q0 52 36.5 89t89.5 37h548q53 0 89.5 -37t36.5 -89v-548q0 -52 -36.5 -89 t-89.5 -37h-548q-53 0 -89.5 37t-36.5 89zM436 335q0 21 -25 32q22 10 22 27q0 14 -13 22.5t-35 8.5q-21 0 -34 -9.5t-13 -23.5q0 -22 20 -29q-23 -11 -23 -29q0 -15 11 -25q13 -10 39 -10q23 0 37 10t14 26zM550 342q0 23 -16 30q-11 8 -30 8q-2 0 -6.5 -0.5t-5.5 -0.5v20 h55v23h-85v-68q4 0 13.5 2t14.5 2q13 0 22 -5q7 -5 7 -12q0 -9 -6 -13q-6 -5 -20 -5q-20 0 -33 10l-3 -27q14 -7 40 -7q24 0 39 12q14 11 14 31zM405 334q0 -9 -7 -11q-3 -3 -12 -3q-21 0 -21 18q0 10 9 17q12 -3 16 -6q15 -6 15 -15zM403 390q0 -7 -7 -16l-16 6 q-11 4 -11 12q0 4 5 9q9 3 11 3q18 0 18 -14z" />
<glyph unicode="&#x201d;" d="M192 590l70 -402h366l70 402h-37l-7 -46q-6 2 -16 2q-9 0 -24 -8.5t-24 -8.5t-24.5 8.5t-24.5 8.5t-24 -8.5t-24 -8.5t-24.5 8.5t-24.5 8.5t-24 -8.5t-24 -8.5t-24.5 8.5t-24.5 8.5t-24 -8.5t-24 -8.5t-24.5 8.5t-24.5 8.5q-5 0 -13 -2l-8 46h-37zM597 224h-304l-50 287 q2 1 7 1q9 0 24.5 -8.5t24.5 -8.5t24 8.5t24 8.5t24.5 -8.5t24.5 -8.5t24 8.5t24 8.5t24.5 -8.5t24.5 -8.5t24 8.5t24 8.5t24.5 -8.5t24.5 -8.5t24 8.5t24 8.5q1 0 4.5 -0.5t4.5 -0.5zM45 126v548q0 52 36.5 89t89.5 37h548q53 0 89.5 -37t36.5 -89v-548q0 -52 -36.5 -89 t-89.5 -37h-548q-53 0 -89.5 37t-36.5 89zM436 335q0 21 -25 32q22 10 22 27q0 14 -13 22.5t-35 8.5q-21 0 -34 -9.5t-13 -23.5q0 -22 20 -29q-23 -11 -23 -29q0 -15 11 -25q13 -10 39 -10q23 0 37 10t14 26zM550 342q0 23 -16 30q-11 8 -30 8q-2 0 -6.5 -0.5t-5.5 -0.5v20 h55v23h-85v-68q4 0 13.5 2t14.5 2q13 0 22 -5q7 -5 7 -12q0 -9 -6 -13q-6 -5 -20 -5q-20 0 -33 10l-3 -27q14 -7 40 -7q24 0 39 12q14 11 14 31zM405 334q0 -9 -7 -11q-3 -3 -12 -3q-21 0 -21 18q0 10 9 17q12 -3 16 -6q15 -6 15 -15zM403 390q0 -7 -7 -16l-16 6 q-11 4 -11 12q0 4 5 9q9 3 11 3q18 0 18 -14z" />
<glyph unicode="&#x2026;" horiz-adv-x="2670" d="M1825 126v548q0 52 36.5 89t89.5 37h548q53 0 89.5 -37t36.5 -89v-548q0 -52 -36.5 -89t-89.5 -37h-548q-53 0 -89.5 37t-36.5 89zM2490 775h-530q-48 0 -79 -31t-31 -79v-530q0 -48 31 -79t79 -31h530q48 0 79 31t31 79v530q0 48 -31 79t-79 31zM935 126v548 q0 52 36.5 89t89.5 37h548q53 0 89.5 -37t36.5 -89v-548q0 -52 -36.5 -89t-89.5 -37h-548q-53 0 -89.5 37t-36.5 89zM1600 775h-530q-48 0 -79 -31t-31 -79v-530q0 -48 31 -79t79 -31h530q48 0 79 31t31 79v530q0 48 -31 79t-79 31zM45 126v548q0 52 36.5 89t89.5 37h548 q53 0 89.5 -37t36.5 -89v-548q0 -52 -36.5 -89t-89.5 -37h-548q-53 0 -89.5 37t-36.5 89zM710 775h-530q-48 0 -79 -31t-31 -79v-530q0 -48 31 -79t79 -31h530q48 0 79 31t31 79v530q0 48 -31 79t-79 31z" />
<glyph unicode="&#x202f;" horiz-adv-x="160" />
<glyph unicode="&#x205f;" horiz-adv-x="200" />
<glyph unicode="&#x2122;" horiz-adv-x="1780" d="M935 126v548q0 52 36.5 89t89.5 37h548q53 0 89.5 -37t36.5 -89v-548q0 -52 -36.5 -89t-89.5 -37h-548q-53 0 -89.5 37t-36.5 89zM1082 119v-36h506v36h-506zM1082 718v-506h506v506h-506zM1160 465q0 72 51 124t123 52q73 0 125 -52t52 -124t-52 -124t-125 -52 q-72 0 -123 52t-51 124zM1548 252h-192q76 7 130 61t62 130v-191zM1356 678h192v-192q-7 76 -61.5 130t-130.5 62zM1312 252h-189v184q10 -73 63 -125t126 -59zM1123 494v184h189q-73 -7 -126 -59t-63 -125zM1082 181v-36h506v36h-506zM45 126v548q0 52 36.5 89t89.5 37h548 q53 0 89.5 -37t36.5 -89v-548q0 -52 -36.5 -89t-89.5 -37h-548q-53 0 -89.5 37t-36.5 89zM192 590l70 -402h366l70 402h-37l-7 -46q-6 2 -16 2q-9 0 -24 -8.5t-24 -8.5t-24.5 8.5t-24.5 8.5t-24 -8.5t-24 -8.5t-24.5 8.5t-24.5 8.5t-24 -8.5t-24 -8.5t-24.5 8.5t-24.5 8.5 t-24 -8.5t-24 -8.5t-24.5 8.5t-24.5 8.5q-5 0 -13 -2l-8 46h-37zM597 224h-304l-50 287q2 1 7 1q9 0 24.5 -8.5t24.5 -8.5t24 8.5t24 8.5t24.5 -8.5t24.5 -8.5t24 8.5t24 8.5t24.5 -8.5t24.5 -8.5t24 8.5t24 8.5t24.5 -8.5t24.5 -8.5t24 8.5t24 8.5q1 0 4.5 -0.5t4.5 -0.5z M408 374q0 -15 10.5 -25.5t25.5 -10.5t25.5 10.5t10.5 25.5t-10.5 25.5t-25.5 10.5t-25.5 -10.5t-10.5 -25.5z" />
</font>
</defs>
</svg>
